<svg width="48" height="49" viewBox="0 0 48 49" fill="none" xmlns="http://www.w3.org/2000/svg">
    <path
        d="M30.4001 46.9H43.2001C44.9674 46.9 46.4001 45.4673 46.4001 43.7V5.29998C46.4001 3.53266 44.9674 2.09998 43.2001 2.09998H30.4001C28.6328 2.09998 27.2001 3.53267 27.2001 5.29998V43.7C27.2001 45.4673 28.6328 46.9 30.4001 46.9ZM30.4001 46.9H12.8001M20.8001 37.3V46.9M27.2001 18.1H46.4001M32.0001 37.3H41.6001M4.8001 11.7H27.2001V37.3H4.8001C3.03279 37.3 1.6001 35.8673 1.6001 34.1V14.9C1.6001 13.1327 3.03279 11.7 4.8001 11.7Z"
        stroke="#85858B" stroke-width="2"/>
</svg>
