<svg width="41" height="51" viewBox="0 0 41 51" fill="none" xmlns="http://www.w3.org/2000/svg">
    <path
        d="M39.7 13.5V37.5C39.7 47.1 37.3 49.5 27.7 49.5H13.3C3.70005 49.5 1.30005 47.1 1.30005 37.5V13.5C1.30005 3.9 3.70005 1.5 13.3 1.5H27.7C37.3 1.5 39.7 3.9 39.7 13.5Z"
        stroke="#85858B" stroke-width="2" stroke-linecap="round" stroke-linejoin="round"/>
    <path d="M25.2999 9.90002H15.7" stroke="#85858B" stroke-width="2" stroke-linecap="round" stroke-linejoin="round"/>
    <path
        d="M20.5 42.54C22.5545 42.54 24.22 40.8745 24.22 38.82C24.22 36.7655 22.5545 35.1 20.5 35.1C18.4455 35.1 16.78 36.7655 16.78 38.82C16.78 40.8745 18.4455 42.54 20.5 42.54Z"
        stroke="#85858B" stroke-width="2" stroke-linecap="round" stroke-linejoin="round"/>
</svg>
