<svg width="72" height="72" viewBox="0 0 72 72" fill="none" xmlns="http://www.w3.org/2000/svg">
    <path fill-rule="evenodd" clip-rule="evenodd"
          d="M44.9472 0.139428C44.6372 0.24229 44.1616 0.438445 43.8904 0.575219C43.6192 0.711993 36.6763 7.52748 28.4618 15.7208L13.5264 30.6177L8.52446 30.6576L3.5225 30.6977L2.77038 31.0933C1.76717 31.621 0.910215 32.5024 0.41016 33.5208L0 34.3563V51.245V68.1336L0.457926 69.0625C1.00166 70.1655 1.88736 71.0306 3.0047 71.5499C3.70103 71.8735 4.02622 71.9282 5.52244 71.9737C7.2093 72.0249 7.2472 72.0193 7.60072 71.6662C8.02892 71.2386 8.06146 70.7455 7.69174 70.2892C7.44362 69.9827 7.29159 69.9511 5.73464 69.8803C4.20263 69.8108 3.99311 69.7684 3.46868 69.4218C3.15081 69.2118 2.71599 68.776 2.50225 68.4534L2.1135 67.867L2.07602 51.4695L2.0384 35.0721L2.39446 34.3453C2.62272 33.8794 2.96059 33.4732 3.33581 33.2136L3.92111 32.8085H36H68.0789L68.6642 33.2136C69.0394 33.4732 69.3773 33.8794 69.6055 34.3453L69.9616 35.0721L69.924 51.4695L69.8865 67.867L69.4977 68.4534C69.284 68.776 68.8448 69.2146 68.5219 69.428L67.9345 69.8163L39.8222 69.8529L11.7099 69.8893L11.3853 70.1939C10.9525 70.6002 10.9537 71.285 11.3883 71.6927L11.7159 72L39.9587 71.9636L68.2016 71.927L69.1318 71.4697C70.2345 70.9275 71.1003 70.0444 71.6252 68.9262L72 68.1277V51.242V34.3563L71.6988 33.7231C71.23 32.7378 70.6147 31.9826 69.8903 31.5035C69.5252 31.262 69.1531 31.0379 69.0634 31.0055C68.9736 30.9731 69.4232 30.4077 70.0625 29.7491C71.6114 28.1529 72.0003 27.3404 71.9993 25.7024C71.9986 24.676 71.9419 24.3912 71.6004 23.6952C71.3816 23.2492 70.837 22.5007 70.3905 22.0322C69.6406 21.2451 69.5375 21.1834 69.0419 21.2249C68.6566 21.2572 68.4269 21.3754 68.2265 21.6446C67.8396 22.1644 67.987 22.6184 68.833 23.5116C69.8948 24.6328 70.136 25.4045 69.8011 26.6089C69.6842 27.0296 69.2361 27.5822 67.9466 28.8955L66.2463 30.6274H64.7904C63.3479 30.6274 63.1286 30.5511 63.5553 30.1975C64.2589 29.6144 64.3438 28.6656 63.7926 27.5452C63.2446 26.4314 63.2466 24.9701 63.7975 23.9129C64.3084 22.9326 64.3009 22.2484 63.7716 21.5373C63.286 20.8849 50.7389 8.39456 50.2347 8.06177C49.718 7.72054 48.9163 7.77753 48.0775 8.21515C47.0288 8.76211 45.565 8.76225 44.4405 8.21529C43.5606 7.78724 42.936 7.7325 42.3687 8.03377C42.1595 8.14479 36.9477 13.2738 30.787 19.4316L19.5858 30.6274H18.1412C17.3468 30.6274 16.6967 30.5794 16.6967 30.5209C16.6967 30.4623 22.9896 24.1326 30.681 16.4548C40.5418 6.61157 44.8198 2.43152 45.1892 2.27884C45.8555 2.00361 46.575 2.00361 47.2413 2.27884C47.605 2.42899 50.3938 5.11606 56.3601 11.065C62.3202 17.0077 65.0776 19.6646 65.3547 19.7319C65.952 19.877 66.4921 19.4254 66.5501 18.7323L66.5955 18.1926L57.8848 9.51352C48.1862 -0.150021 48.5171 0.127326 46.546 0.0125036C45.9018 -0.0249263 45.2979 0.0229165 44.9472 0.139428ZM45.8722 10.7504C46.8448 10.817 47.1531 10.7752 48.2032 10.4339L49.4133 10.0409L55.6907 16.3099L61.9679 22.579L61.5744 23.7874C61.2327 24.8362 61.1908 25.144 61.2575 26.1154C61.31 26.88 61.4456 27.4775 61.6851 28.0003L62.036 28.7656L61.0949 29.6983L60.1537 30.6309L55.0353 30.594L49.917 30.557L49.6524 29.5017C49.245 27.8763 48.3806 26.2593 47.3181 25.1345C45.3682 23.0701 42.8813 22.0438 39.8287 22.0438C34.808 22.0438 29.5069 24.8684 25.8976 29.4665L24.9864 30.6274H23.8709C23.2574 30.6274 22.7554 30.5801 22.7554 30.5223C22.7554 30.4643 27.3606 25.8175 32.9892 20.196L43.2231 9.97492L43.9871 10.3243C44.5083 10.5625 45.1076 10.6981 45.8722 10.7504ZM49.7142 16.4334L49.2734 16.8736L48.7878 16.5038C48.0357 15.9308 47.3633 16.0253 47.0595 16.7468C46.8554 17.232 46.9746 17.7059 47.4207 18.1815C47.6664 18.4437 47.6763 18.543 47.5266 19.2553C47.385 19.9296 47.3964 20.1308 47.6072 20.6821C47.943 21.5601 48.2927 21.9671 49.0079 22.313C50.1292 22.855 51.318 22.6348 52.3637 21.6913C52.9866 21.1293 53.0161 21.1219 53.4402 21.4186C53.9737 21.7917 53.8285 22.1881 52.777 23.2302C51.6995 24.2979 51.5318 24.6632 51.8431 25.2644C52.2271 26.0059 52.8346 26.0357 53.5945 25.3502C54.0929 24.9005 54.1578 24.8777 54.3345 25.0903C54.6525 25.4729 55.3157 25.6907 55.7084 25.5416C56.5201 25.2334 56.6433 24.4764 56.007 23.7055C55.6437 23.2654 55.6036 23.1393 55.7252 22.82C56.1174 21.7896 55.6637 20.3296 54.7599 19.7139C53.5502 18.8897 52.2733 18.9722 51.1657 19.9459C50.8216 20.2485 50.4168 20.496 50.2664 20.496C49.9681 20.496 49.5264 20.0851 49.5264 19.8076C49.5264 19.7121 50.002 19.1353 50.5832 18.526C51.4269 17.6414 51.6399 17.3312 51.6399 16.987C51.6399 15.9813 50.4962 15.6525 49.7142 16.4334ZM42.1172 24.4329C44.0517 24.9271 45.5564 25.9885 46.595 27.5919C47.0817 28.3433 47.6947 29.9261 47.6947 30.4311C47.6947 30.5971 46.1636 30.6274 37.7613 30.6274C30.6875 30.6274 27.8278 30.5832 27.8278 30.474C27.8278 30.3897 28.4142 29.7372 29.1311 29.0241C31.6041 26.5637 34.8462 24.7944 37.7838 24.302C39.0891 24.0832 40.9704 24.14 42.1172 24.4329ZM9.73634 35.5587C9.39847 35.8551 9.15626 36.2616 8.95153 36.8761C8.78865 37.3648 8.43879 38.0174 8.17418 38.3263C7.74402 38.8282 7.32357 39.0819 5.56993 39.8981C5.30109 40.0231 4.93531 40.3426 4.75707 40.6077L4.433 41.0898L4.4709 51.3972C4.51501 63.3886 4.33324 62.1842 6.21468 62.9545C7.55352 63.5026 8.48402 64.3795 8.86713 65.4541C9.26081 66.5586 9.40058 66.7936 9.85794 67.1193L10.2857 67.4241H36.0249H61.764L62.1619 67.1276C62.4157 66.9385 62.7257 66.4294 63.0182 65.7219C63.6243 64.255 64.3178 63.5624 65.7867 62.957C67.6652 62.1827 67.4847 63.3637 67.5309 51.5483C67.5528 45.9624 67.536 41.2507 67.4937 41.0779C67.3548 40.512 66.6134 39.8169 65.9767 39.6557C65.1883 39.4564 64.1679 38.798 63.7021 38.188C63.4964 37.9186 63.1975 37.3124 63.0382 36.841C62.8428 36.263 62.5897 35.8446 62.2615 35.557L61.7749 35.1302H36H10.2251L9.73634 35.5587ZM61.2878 38.1908C61.9461 39.7118 63.5136 41.0986 65.2016 41.6539C65.4332 41.73 65.4481 42.315 65.4481 51.2966V60.8583L64.7569 61.0876C63.2294 61.5943 61.6537 63.1679 61.1463 64.6934L60.9166 65.3838H36H11.0834L10.8537 64.6934C10.3463 63.1679 8.77061 61.5943 7.24311 61.0876L6.55186 60.8583V51.2966C6.55186 42.315 6.56679 41.73 6.79843 41.6539C8.48642 41.0986 10.0539 39.7118 10.7122 38.1908L11.1234 37.241H36H60.8766L61.2878 38.1908ZM33.5342 38.8858C29.2006 39.4473 25.7063 40.9862 23.0548 43.5009C20.6293 45.8014 19.484 48.2765 19.4728 51.242C19.4663 52.9731 19.7273 54.0521 20.5623 55.7449C21.92 58.4974 24.5259 60.7759 27.9804 62.2309C30.5486 63.3126 32.8278 63.7422 36 63.7422C39.2327 63.7422 41.5351 63.2977 44.1622 62.1666C47.5969 60.6877 50.0813 58.495 51.4377 55.7449C52.2633 54.0711 52.5266 52.9794 52.5242 51.242C52.5198 48.2085 51.3529 45.7525 48.7725 43.345C45.5804 40.3671 40.9763 38.7524 35.8411 38.8099C34.8047 38.8214 33.7667 38.8556 33.5342 38.8858ZM39.9452 41.2502C43.3351 42.0002 46.0896 43.463 48.0079 45.5324C50.732 48.4706 51.1879 52.2193 49.2194 55.491C47.5272 58.3033 43.8267 60.5343 39.4343 61.3904C37.7294 61.7227 34.2706 61.7227 32.5657 61.3904C29.0387 60.7031 26.2014 59.293 24.1644 57.2152C20.8083 53.7919 20.6965 49.1199 23.8874 45.6421C26.0595 43.2749 28.9825 41.8019 32.9002 41.1007C34.3347 40.8439 38.5093 40.9326 39.9452 41.2502ZM12.252 45.4664C11.9889 45.729 11.9061 45.9609 11.9061 46.4342C11.9061 46.9929 11.8628 47.0748 11.4849 47.2311C10.6191 47.5892 9.79411 48.8596 9.79411 49.8349C9.79411 51.3398 11.201 52.7089 12.7553 52.7164C13.6145 52.7206 14.0486 53.034 13.9922 53.6092C13.9297 54.2489 13.5061 54.4036 11.8107 54.406C10.4304 54.4079 10.3656 54.422 10.0846 54.7789C9.7076 55.2574 9.71591 55.5698 10.1179 56.0366C10.3704 56.3297 10.607 56.43 11.1747 56.4844C11.8908 56.5531 11.9061 56.5641 11.9061 57.0102C11.9061 57.6787 12.3772 58.2074 12.9731 58.2074C13.6638 58.2074 14.0196 57.8017 14.0196 57.0141C14.0196 56.4276 14.0563 56.365 14.5479 56.1132C16.3122 55.2097 16.6762 53.0192 15.3068 51.5461C14.7642 50.9624 14.2375 50.734 13.1954 50.6305C12.3878 50.5503 12.2417 50.4907 12.0605 50.1676C11.8739 49.8353 11.8773 49.7589 12.0939 49.4289C12.3296 49.0695 12.3709 49.0609 13.8629 49.0609C15.1951 49.0609 15.4382 49.0236 15.7618 48.7692C16.2471 48.388 16.2679 47.6887 15.807 47.2561C15.5588 47.0233 15.3064 46.9502 14.7503 46.9502H14.0196V46.3415C14.0196 45.2415 12.9883 44.7309 12.252 45.4664ZM58.2867 45.4466C58.0695 45.6776 57.979 45.9538 57.9758 46.3964C57.9711 46.9979 57.9446 47.0359 57.2442 47.4427C55.4583 48.4802 55.3824 51.0028 57.1008 52.2117C57.5552 52.5312 57.8959 52.6383 58.6916 52.7111C59.7255 52.8058 60.0969 53.0298 60.0918 53.5555C60.0855 54.1945 59.5234 54.4081 57.8488 54.4081C56.2555 54.4081 55.8669 54.5982 55.8669 55.3774C55.8669 56.0558 56.2524 56.3803 57.1703 56.4747L57.9804 56.5582V57.1013C57.9804 57.797 58.3688 58.2074 59.0269 58.2074C59.6495 58.2074 60.0939 57.6808 60.0939 56.943C60.0939 56.47 60.159 56.3798 60.776 55.9967C61.5263 55.5308 62.2074 54.4182 62.2074 53.6581C62.2074 51.9312 60.7793 50.6088 58.9145 50.6088C58.3444 50.6088 57.9804 50.3071 57.9804 49.8349C57.9804 49.1841 58.2934 49.0609 59.9475 49.0609C61.6638 49.0609 61.9981 48.9184 62.1523 48.1204C62.2222 47.759 62.169 47.6026 61.8773 47.3113C61.5847 47.019 61.3802 46.9502 60.8048 46.9502H60.0939V46.381C60.0939 45.2978 58.9724 44.7178 58.2867 45.4466ZM34.86 47.591C33.9788 47.862 33.0005 48.7583 32.5206 49.7344C32.1802 50.4267 32.1257 50.7046 32.1288 51.7345C32.1327 53.1158 32.4342 53.899 33.3084 54.7984C34.1069 55.6202 34.7639 55.8856 36 55.8856C37.2361 55.8856 37.8931 55.6202 38.6916 54.7984C39.5658 53.899 39.8673 53.1158 39.8712 51.7345C39.8743 50.7046 39.8198 50.4267 39.4794 49.7344C38.9826 48.7239 38.0214 47.8616 37.081 47.5827C36.2205 47.3276 35.71 47.3294 34.86 47.591ZM26.1615 48.2608C25.8959 48.5432 25.8552 48.7478 25.8552 49.7986C25.8552 50.9403 25.8767 51.0274 26.2265 51.3021C26.6511 51.6357 26.8294 51.6574 27.3184 51.4348C27.8253 51.2042 28.0094 50.6255 27.9439 49.4687C27.8963 48.6267 27.8343 48.4214 27.5601 48.1998C27.1148 47.8397 26.5339 47.865 26.1615 48.2608ZM44.4399 48.1998C44.1657 48.4214 44.1037 48.6267 44.0561 49.4687C43.9906 50.6255 44.1747 51.2042 44.6816 51.4348C45.1706 51.6574 45.3489 51.6357 45.7735 51.3021C46.1241 51.0267 46.1448 50.9419 46.1448 49.7789C46.1448 48.6733 46.1114 48.5158 45.8188 48.2411C45.4179 47.8651 44.8739 47.8488 44.4399 48.1998ZM36.9419 49.8389C37.1193 49.955 37.3921 50.2999 37.5481 50.6053C38.0625 51.6122 37.8417 52.753 36.9946 53.4649C35.412 54.7948 33.4103 52.4562 34.4898 50.5384C35.0393 49.5622 36.0697 49.2682 36.9419 49.8389Z"
          fill="#505257"/>
</svg>
