<svg width="72" height="72" viewBox="0 0 72 72" fill="none" xmlns="http://www.w3.org/2000/svg">
    <path fill-rule="evenodd" clip-rule="evenodd"
          d="M11.3577 0.113117C10.454 0.326696 9.13492 1.10367 8.49258 1.80038C8.16618 2.15455 7.69191 2.88151 7.43893 3.41553L6.97877 4.38674L6.93893 18.4334L6.89909 32.4799L5.5852 32.5549C4.45493 32.6193 4.12329 32.7031 3.21038 33.1542C1.92687 33.7884 1.09392 34.6454 0.460162 35.9831L0 36.9543V48.8113V60.6682L0.543035 61.7668C1.197 63.0901 2.03882 63.9143 3.39052 64.5546L4.36173 65.0148L12.4052 65.057L20.4487 65.0991L24.0878 68.2239C26.0894 69.9425 27.9984 71.4918 28.3299 71.6669C29.164 72.107 30.7282 72.1118 31.5517 71.6768C32.2925 71.2855 32.8758 70.7026 33.27 69.96C33.536 69.4587 33.5869 69.0772 33.6318 67.2487L33.684 65.1211L35.5247 65.0631C37.2201 65.0097 37.4422 64.9691 38.3367 64.5498C39.6845 63.918 40.5288 63.0929 41.1842 61.767L41.7272 60.6685L41.7681 50.0836L41.8089 39.4987H45.0796H48.3502L51.9962 42.6292C54.0014 44.3511 55.9134 45.903 56.2449 46.0781C57.079 46.5182 58.6433 46.5229 59.4668 46.0879C60.2076 45.6967 60.7909 45.1138 61.185 44.3712C61.4512 43.8696 61.502 43.4885 61.5469 41.6557L61.5993 39.5237L64.6112 39.4748L67.6231 39.426L68.7211 38.8829C70.0439 38.229 70.8684 37.3866 71.5084 36.0355L71.9685 35.0642V19.7255V4.38674L71.5084 3.41553C70.8681 2.06397 70.0439 1.22201 68.7206 0.568045L67.6219 0.0250096L39.772 0.00232856C23.2879 -0.0110474 11.6918 0.0341692 11.3577 0.113117ZM67.2992 2.45537C68.0978 2.69134 69.3022 3.89575 69.5382 4.69439C69.7932 5.55772 69.7932 33.8933 69.5382 34.7566C69.3022 35.5552 68.0978 36.7596 67.2992 36.9956C66.8977 37.1143 65.4767 37.1724 62.9818 37.1724H59.2628L59.2185 40.2945C59.1754 43.3209 59.164 43.427 58.8429 43.7476C58.6017 43.9886 58.3429 44.0785 57.8897 44.0785C57.2878 44.0785 57.1385 43.9676 53.2448 40.6255L49.2217 37.1724H45.438C42.3187 37.1724 41.6545 37.1372 41.6545 36.9718C41.6545 36.8616 41.4366 36.3382 41.1701 35.8086L40.6856 34.8462H54.0372H67.3887L67.3836 30.8843C67.3769 25.6771 67.0947 24.1749 65.6882 21.8595C64.6317 20.1201 62.2791 18.007 60.634 17.3197L60.1007 17.0968L60.8447 16.2826C63.3934 13.494 63.354 9.50349 60.7508 6.77435C58.0189 3.91015 53.496 3.91015 50.7641 6.77435C48.159 9.50552 48.1214 13.4939 50.6741 16.2871L51.4223 17.1055L51.0151 17.2604C50.3985 17.4948 49.0315 18.3543 48.2556 18.9955L47.5638 19.5672L46.9998 19.0577C46.3322 18.4545 45.0302 17.6038 44.3217 17.3078L43.8169 17.0968L44.5609 16.2826C47.1682 13.4299 47.0477 9.22739 44.2829 6.59029C41.4562 3.89401 37.1505 3.97499 34.4803 6.77435C31.8771 9.50349 31.8377 13.494 34.3864 16.2826L35.1304 17.0968L34.6256 17.3078C33.8735 17.622 32.4914 18.5259 31.9088 19.0846L31.3954 19.577L30.6976 19.0004C29.9165 18.3549 28.5506 17.4955 27.9322 17.2604L27.525 17.1055L28.2732 16.2871C30.8259 13.4939 30.7883 9.50552 28.1832 6.77435C25.5131 3.97499 21.2073 3.89401 18.3806 6.59029C15.6159 9.22739 15.4953 13.4299 18.1026 16.2826L18.8466 17.0968L18.3418 17.3078C15.9898 18.2905 13.396 21.0256 12.4228 23.5496C11.7211 25.3688 11.5586 26.5254 11.5586 29.6976V32.5199H10.3955H9.23233V18.9064C9.23233 8.64277 9.2758 5.14554 9.40912 4.69439C9.62794 3.95377 10.845 2.69352 11.5586 2.4686C12.3277 2.22623 66.48 2.21329 67.2992 2.45537ZM12.9398 4.81012C12.4051 5.04769 11.92 5.55975 11.7137 6.10453C11.6186 6.35548 11.5586 7.94533 11.5586 10.2118V13.9099H12.7217H13.8848V10.4205V6.93108H15.048H16.2111V5.76795V4.60483L14.7935 4.6105C13.9394 4.61399 13.2027 4.69322 12.9398 4.81012ZM65.0625 5.76795V6.93108H66.2256H67.3887V5.76795V4.60483H66.2256H65.0625V5.76795ZM25.3783 7.52849C26.3614 8.05248 26.8054 8.51497 27.372 9.60526C27.6999 10.2363 27.7583 10.5334 27.7611 11.5836C27.764 12.7153 27.7226 12.8966 27.2703 13.7355C26.7201 14.7559 26.2639 15.1964 25.1682 15.7658C24.535 16.0948 24.2438 16.1516 23.1899 16.1516C22.1359 16.1516 21.8447 16.0948 21.2115 15.7658C20.1159 15.1964 19.6596 14.7559 19.1095 13.7355C18.6566 12.8956 18.6159 12.7168 18.6202 11.5836C18.6256 10.1253 18.9706 9.25298 19.9151 8.30924C21.3665 6.85897 23.5395 6.54827 25.3783 7.52849ZM41.6621 7.52849C42.6452 8.05248 43.0892 8.51497 43.6558 9.60526C43.9837 10.2363 44.0421 10.5334 44.0449 11.5836C44.0478 12.7153 44.0064 12.8966 43.5541 13.7355C43.0039 14.7559 42.5477 15.1964 41.452 15.7658C40.8188 16.0948 40.5276 16.1516 39.4737 16.1516C38.4197 16.1516 38.1285 16.0948 37.4953 15.7658C36.3997 15.1964 35.9434 14.7559 35.3933 13.7355C34.9404 12.8956 34.8997 12.7168 34.904 11.5836C34.9094 10.1253 35.2544 9.25298 36.1989 8.30924C37.6503 6.85897 39.8233 6.54827 41.6621 7.52849ZM57.9459 7.52849C58.929 8.05248 59.373 8.51497 59.9396 9.60526C60.2675 10.2363 60.3259 10.5334 60.3287 11.5836C60.3316 12.7153 60.2902 12.8966 59.8378 13.7355C59.2877 14.7559 58.8314 15.1964 57.7358 15.7658C57.1026 16.0948 56.8114 16.1516 55.7574 16.1516C54.7035 16.1516 54.4123 16.0948 53.7791 15.7658C52.6834 15.1964 52.2272 14.7559 51.677 13.7355C51.2242 12.8956 51.1834 12.7168 51.1878 11.5836C51.1932 10.1253 51.5382 9.25298 52.4827 8.30924C53.9341 6.85897 56.1071 6.54827 57.9459 7.52849ZM65.0625 10.4205V11.5836H66.2256H67.3887V10.4205V9.25734H66.2256H65.0625V10.4205ZM65.0625 15.073V16.2361H66.2256H67.3887V15.073V13.9099H66.2256H65.0625V15.073ZM11.5586 17.3992V18.5624H12.7217H13.8848V17.3992V16.2361H12.7217H11.5586V17.3992ZM24.7791 18.7192L25.5104 18.876L25.2938 19.4098C24.5097 21.3421 21.8694 21.3401 21.0846 19.4067L20.8667 18.8697L21.483 18.7316C22.3435 18.5388 23.9107 18.533 24.7791 18.7192ZM40.1555 22.9604L40.5988 27.3585L40.0362 27.9379L39.4737 28.5174L38.9111 27.9379L38.3485 27.3585L38.7918 22.9604C39.1749 19.1609 39.2676 18.5624 39.4737 18.5624C39.6797 18.5624 39.7724 19.1609 40.1555 22.9604ZM57.3467 18.7192L58.078 18.876L57.8614 19.4098C57.0773 21.3421 54.437 21.3401 53.6522 19.4067L53.4342 18.8697L54.0506 18.7316C54.9111 18.5388 56.4783 18.533 57.3467 18.7192ZM36.8085 19.6891C36.7614 20.0691 36.5465 22.1684 36.3309 24.3545L35.9388 28.3293L37.7061 30.0967L39.4737 31.8642L41.2413 30.0964L43.0091 28.3287L42.5466 23.7155C42.2922 21.1781 42.1174 19.0686 42.1584 19.0278C42.3105 18.8757 44.0865 19.7556 45.0285 20.45C46.2031 21.3156 47.1615 22.4879 47.846 23.896C48.6077 25.4633 48.7733 26.4997 48.7762 29.7211L48.7787 32.5199H39.4737H30.1686L30.1711 29.7211C30.174 26.5036 30.3392 25.467 31.0987 23.896C31.7855 22.4757 32.8078 21.2551 34.0671 20.3521C34.9635 19.7094 36.3209 19.0326 36.7663 19.0061C36.8366 19.0019 36.8556 19.3092 36.8085 19.6891ZM19.0167 20.5013C19.4523 21.4529 20.1939 22.215 21.1955 22.7403C21.8491 23.0832 22.125 23.1381 23.1899 23.1381C24.2547 23.1381 24.5307 23.0832 25.1842 22.7403C26.1862 22.2147 26.9276 21.4527 27.3639 20.4996L27.72 19.722L28.181 20.0391C28.4346 20.2136 28.9197 20.5784 29.2591 20.8495L29.8761 21.3428L29.5107 21.879C28.9985 22.6308 28.2922 24.524 28.0484 25.7988C27.9146 26.4972 27.8424 27.8662 27.8424 29.6976V32.5199H20.8636H13.8848L13.8873 29.7211C13.8902 26.4985 14.0545 25.4715 14.8219 23.876C15.4852 22.4971 16.4513 21.3228 17.65 20.4382C18.1781 20.0485 18.6217 19.7288 18.6358 19.7277C18.6499 19.7265 18.8213 20.0746 19.0167 20.5013ZM51.5843 20.5013C52.0199 21.4529 52.7615 22.215 53.7631 22.7403C54.4166 23.0832 54.6926 23.1381 55.7574 23.1381C56.8223 23.1381 57.0982 23.0832 57.7518 22.7403C58.7537 22.2149 59.4952 21.4527 59.9313 20.5L60.2871 19.7227L61.165 20.3385C62.37 21.1838 63.3522 22.3412 64.0459 23.733C64.8877 25.4223 65.0569 26.4219 65.06 29.7211L65.0625 32.5199H58.0837H51.1049L51.0998 29.7211C51.093 25.9632 50.7068 24.0369 49.5718 22.1C49.3755 21.7652 49.2148 21.4206 49.2148 21.3345C49.2148 21.2187 51.043 19.7413 51.2034 19.7277C51.2175 19.7265 51.3889 20.0746 51.5843 20.5013ZM37.0578 35.023C37.8565 35.2589 39.0609 36.4633 39.2969 37.262C39.5507 38.1211 39.5507 59.4863 39.2969 60.3454C39.0609 61.1441 37.8565 62.3485 37.0578 62.5844C36.6875 62.6938 35.4853 62.7612 33.9036 62.7612H31.3478L31.3034 65.8834C31.2604 68.9097 31.2489 69.0158 30.9279 69.3364C30.6867 69.5775 30.4279 69.6673 29.9747 69.6673C29.3728 69.6673 29.2234 69.5564 25.3297 66.2143L21.3066 62.7612H13.2873C7.41581 62.7612 5.10759 62.7138 4.66938 62.5844C3.87074 62.3485 2.66633 61.1441 2.43036 60.3454C2.1765 59.4863 2.1765 38.1211 2.43036 37.262C2.64917 36.5214 3.86624 35.2611 4.57982 35.0362C5.34486 34.7951 36.2438 34.7825 37.0578 35.023ZM23.288 37.6705C22.2961 38.3758 20.4481 39.3136 19.2207 39.7346C17.236 40.4155 16.2892 40.5498 12.7944 40.646C9.00217 40.7503 8.7662 40.81 7.80023 41.9074C6.99898 42.8175 6.90607 43.2927 6.90607 46.4774C6.90607 49.8368 6.99098 50.207 7.99156 51.2076C8.81564 52.0317 9.47746 52.2931 10.7395 52.2931H11.5586V54.8569C11.5586 57.9569 11.6564 58.3617 12.6441 59.3495C14.115 60.8204 15.9809 60.8204 17.4519 59.3495C18.4162 58.385 18.5374 57.9245 18.5374 55.2204C18.5374 54.0102 18.5599 53.02 18.5872 53.02C18.6147 53.02 18.9913 53.1419 19.4239 53.2908C20.4886 53.657 21.8994 54.3758 23.064 55.1452L24.0286 55.7825H27.0986H30.1686V53.9651C30.1686 52.526 30.2099 52.1477 30.3672 52.1477C30.4764 52.1477 31.0248 51.918 31.5859 51.6374C32.8255 51.0171 33.6654 50.1446 34.2883 48.8299C34.7044 47.9516 34.7484 47.7265 34.7484 46.4774C34.7484 45.2284 34.7044 45.0033 34.2883 44.125C33.6654 42.8102 32.8255 41.9378 31.5859 41.3175C31.0248 41.0369 30.4764 40.8072 30.3672 40.8072C30.2099 40.8072 30.1686 40.4289 30.1686 38.9898V37.1724H27.0786H23.9886L23.288 37.6705ZM27.8424 46.4774V53.4562H26.6792H25.5161V46.4774V39.4987H26.6792H27.8424V46.4774ZM23.1899 46.468V52.4196L21.9904 51.8581C19.0237 50.4693 17.2457 50.097 13.0356 49.9824C8.88208 49.8696 9.23233 50.1944 9.23233 46.4548C9.23233 42.7489 8.89284 43.0516 13.1684 42.9462C17.2954 42.8446 19.1567 42.454 21.954 41.1029C22.5938 40.794 23.1336 40.5356 23.1535 40.5288C23.1734 40.5219 23.1899 43.1947 23.1899 46.468ZM30.7428 43.4931C30.9708 43.6109 31.3822 43.9703 31.6573 44.2916C32.7684 45.5897 32.7684 47.3652 31.6573 48.6632C31.2287 49.164 30.5164 49.676 30.2486 49.676C30.2045 49.676 30.1686 48.2367 30.1686 46.4774C30.1686 44.7182 30.2045 43.2788 30.2486 43.2788C30.2925 43.2788 30.515 43.3752 30.7428 43.4931ZM34.8211 54.6193V58.1087H33.658H32.4949V59.2846V60.4607L34.084 60.4114C35.8009 60.3584 36.1244 60.2322 36.7749 59.3616C37.0575 58.9834 37.0772 58.7365 37.1177 55.0452L37.1608 51.13H35.991H34.8211V54.6193ZM15.5365 52.3855L16.2111 52.478V54.9364C16.2111 57.3528 16.205 57.4011 15.8542 57.7518C15.6292 57.9769 15.3312 58.1087 15.048 58.1087C14.7647 58.1087 14.4667 57.9769 14.2418 57.7518C13.8899 57.4001 13.8848 57.3587 13.8848 54.844V52.2931H14.3734C14.6422 52.2931 15.1656 52.3347 15.5365 52.3855Z"
          fill="#505257"/>
</svg>
