<svg width="73" height="72" viewBox="0 0 73 72" fill="none" xmlns="http://www.w3.org/2000/svg">
    <path fill-rule="evenodd" clip-rule="evenodd"
          d="M34.8135 0.141755C32.7922 0.811673 31.6308 2.36279 31.6279 4.39663C31.6221 8.36106 36.468 10.2807 39.2287 7.40774C40.905 5.66308 40.7526 2.69113 38.9019 1.03634C37.9549 0.189646 35.976 -0.243349 34.8135 0.141755ZM36.8116 2.21644C38.0423 2.68268 38.6647 4.26437 38.07 5.41419C36.9541 7.57212 33.7336 6.81163 33.7336 4.3903C33.7336 2.77579 35.3238 1.65273 36.8116 2.21644ZM26.4325 4.79568C17.2586 7.66664 9.9343 14.1714 6.12214 22.8332C5.50871 24.227 4.3179 27.7143 4.3179 28.1172C4.3179 28.589 4.86499 29.1108 5.35996 29.1108C6.00833 29.1108 6.34822 28.6726 6.70994 27.3706C7.30999 25.2101 8.64067 22.1989 9.92487 20.0959C12.301 16.2047 16.2027 12.303 20.0939 9.92684C22.1969 8.64264 25.2082 7.31196 27.3686 6.71191C27.9771 6.54288 28.6175 6.27314 28.7919 6.11242C29.2442 5.69534 29.2187 4.99021 28.7376 4.61186C28.2627 4.23817 28.197 4.24338 26.4325 4.79568ZM43.284 4.61186C42.803 4.99021 42.7775 5.69534 43.2297 6.11242C43.4041 6.27314 44.0445 6.54288 44.653 6.71191C46.8134 7.31196 49.8247 8.64264 51.9277 9.92684C55.8189 12.303 59.7206 16.2047 62.0968 20.0959C63.3809 22.1989 64.7116 25.2101 65.3117 27.3706C65.6734 28.6726 66.0133 29.1108 66.6617 29.1108C67.1566 29.1108 67.7037 28.589 67.7037 28.1172C67.7037 27.7143 66.5129 24.227 65.8995 22.8332C62.654 15.4591 56.5644 9.3696 49.1904 6.12411C47.7966 5.51067 44.3093 4.31987 43.9064 4.31987C43.7682 4.31987 43.4881 4.45129 43.284 4.61186ZM33.8275 15.884C27.035 16.5907 20.9539 20.8037 17.8694 26.9403C15.2649 32.1214 15.0452 38.2431 17.2682 43.6857C18.1618 45.8736 19.7778 48.4185 20.5033 48.7802C20.9081 48.9819 21.5835 48.7833 21.7872 48.4027C22.0494 47.9127 21.9223 47.4828 21.2373 46.5433C19.4671 44.1152 18.2135 40.7716 17.9227 37.7031L17.836 36.7875L18.1319 37.1396C20.1753 39.5718 20.2952 39.6591 23.5449 41.0811C24.4746 41.4879 25.289 41.8703 25.3548 41.931C25.4206 41.9916 25.1845 42.4647 24.8301 42.9823C23.5315 44.8789 23.6017 45.3044 25.5416 47.2936L26.9959 48.785V50.2316C26.9959 51.9149 27.0896 51.8808 25.4954 50.7787C24.3002 49.9524 23.7366 49.8476 23.3117 50.3723C22.6916 51.138 23.0876 51.7451 25.0196 52.991C33.1114 58.2091 43.877 56.9509 50.531 50.0095C53.4808 46.9323 55.3287 43.1145 56.0103 38.6891C56.2158 37.3543 56.1845 34.5283 55.9468 32.9448C54.7257 24.815 48.5875 18.1697 40.5887 16.3175C38.2997 15.7876 36.1064 15.6469 33.8275 15.884ZM37.5339 17.9344L38.2823 18.0244L38.1917 18.6024C37.9706 20.0117 37.8875 20.1534 36.6896 21.1644C36.0548 21.7001 35.4589 22.1852 35.3655 22.2426C35.2457 22.3161 34.9833 21.7414 34.4763 20.2955C34.0808 19.1671 33.7571 18.1891 33.7571 18.1219C33.7571 17.8975 36.2118 17.7757 37.5339 17.9344ZM32.5423 21.1563C33.0751 22.6686 33.6307 24.0585 33.7771 24.2446C34.1706 24.7449 34.8624 24.9341 35.4879 24.7126C36.215 24.4551 39.4227 21.6679 39.7248 21.0309C39.8595 20.7474 40.0547 20.0684 40.1588 19.5222C40.2629 18.9758 40.3764 18.5005 40.4111 18.4659C40.4966 18.3804 42.3816 19.0034 43.4134 19.4582C44.2874 19.8433 46.1525 20.9224 46.1525 21.0429C46.1525 21.081 45.8356 21.5862 45.4483 22.1654C45.0048 22.8284 44.744 23.3705 44.744 23.6292C44.744 24.3536 45.4805 24.7983 46.2141 24.5168C46.3382 24.4692 46.7663 23.9578 47.1654 23.3804L47.8911 22.3306L48.6702 23.1097C49.0989 23.5382 49.4207 23.9121 49.3856 23.9405C49.3506 23.9689 48.0858 24.6449 46.5751 25.4426C45.0644 26.2404 43.6223 27.0466 43.3705 27.2344C42.7418 27.7032 42.5405 28.159 42.4186 29.3906C42.3428 30.1551 42.2026 30.6427 41.9092 31.1628C41.3863 32.0892 41.3804 32.6553 41.8895 33.0556C42.2621 33.3487 42.2656 33.3638 41.9951 33.5149C41.5357 33.7717 40.9797 34.4771 40.0158 36.026C38.5174 38.4337 38.4951 38.9729 39.7869 41.5664C40.3819 42.7605 40.774 43.3717 41.1044 43.6191C41.5937 43.9854 41.693 43.993 44.2479 43.8597L44.8081 43.8304L45.2551 47.5631C45.5011 49.6161 45.6926 51.3033 45.6808 51.3124C45.6691 51.3216 45.1754 51.5929 44.5837 51.9151C42.4511 53.0768 39.9079 53.8247 37.4383 54.0167C35.9952 54.1289 33.7058 54.0365 32.7553 53.8277L32.3785 53.745L33.9481 50.4787C35.4932 47.2635 35.5177 47.1967 35.5127 46.2256C35.504 44.5004 35.1788 44.1479 31.4842 41.8584L28.7567 40.1681L27.7002 40.1593C26.7196 40.1512 26.4974 40.0864 24.6014 39.2549C23.478 38.7625 22.5317 38.3376 22.4985 38.3111C22.4653 38.2847 22.5392 38.0508 22.6627 37.7917C22.9059 37.2819 23.2817 37.1396 24.3856 37.1396C25.463 37.1396 25.9413 36.7278 29.0289 33.1411C32.156 29.5087 32.3523 29.1851 32.0691 28.1331C31.8886 27.4627 29.9804 25.3633 29.2894 25.0745C28.2958 24.6592 27.1213 25.0672 26.5903 26.0119C26.4162 26.3218 26.2284 26.5753 26.1732 26.5753C26.0923 26.5753 25.5926 26.2745 25.3213 26.0625C25.2911 26.0389 25.6968 25.5283 26.2228 24.9277C26.7486 24.3271 27.2948 23.5806 27.4365 23.2687C27.7429 22.594 27.7649 21.5097 27.4879 20.7316C27.3779 20.4228 27.3331 20.1262 27.3885 20.0727C27.7187 19.7521 30.9388 18.4521 31.5034 18.4112C31.5421 18.4084 32.0096 19.6437 32.5423 21.1563ZM28.8912 20.4417C28.701 20.6319 28.5454 20.91 28.5454 21.0599C28.5454 21.2099 28.8464 21.9259 29.2144 22.651C29.969 24.1381 30.3513 24.4249 31.0533 24.0309C31.7695 23.6289 31.7733 23.1994 31.0735 21.7683C30.7289 21.0634 30.3219 20.3989 30.169 20.2914C29.7531 19.9987 29.2782 20.0545 28.8912 20.4417ZM25.5852 21.9011C25.5883 22.3668 25.3948 22.6744 24.307 23.9334C23.2908 25.1091 23.0859 25.6088 23.2531 26.5008C23.3036 26.7696 23.5093 27.185 23.7102 27.4239C24.1827 27.9855 25.5793 28.6882 26.2228 28.6882C26.9835 28.6882 27.7233 28.242 28.1134 27.5481L28.4538 26.9423L29.2039 27.7675C29.6164 28.2215 29.9539 28.651 29.9539 28.7219C29.9539 28.7927 28.7548 30.2311 27.2892 31.9183L24.6245 34.9858L23.5342 35.0847C22.9346 35.1389 22.2714 35.2727 22.0604 35.3817C21.6908 35.5729 21.1702 36.1236 20.8613 36.6503C20.732 36.8707 20.5375 36.6971 19.3448 35.2958C17.7916 33.4713 17.854 33.734 18.4276 31.4349C19.3381 27.7847 21.6588 24.2072 24.6718 21.8098C25.4016 21.2291 25.5809 21.247 25.5852 21.9011ZM39.5568 23.5207C39.086 24.0219 39.1622 24.5481 39.7973 25.1834C40.4271 25.8132 40.9874 25.8996 41.4776 25.443C41.9898 24.9659 41.8934 24.3106 41.2221 23.7041C40.5529 23.0995 40.0089 23.0395 39.5568 23.5207ZM52.1418 27.8845C53.422 30.4234 54.0408 32.9753 54.0403 35.7143L54.04 37.2101L53.3196 36.0128C52.4563 34.5779 51.6802 32.5973 51.9464 32.5085C52.0436 32.4761 52.2691 32.3034 52.4479 32.1248C52.8975 31.6752 52.8775 31.0447 52.4017 30.6705C51.9585 30.3219 51.7082 30.3081 51.0234 30.5941L50.5073 30.8098L49.2322 30.0373C47.7868 29.1618 47.2026 29.0233 45.8708 29.2408C44.6611 29.4384 44.6031 29.434 44.6031 29.1447C44.6031 28.9665 45.4626 28.4342 47.6668 27.2474L50.7304 25.5976L51.0527 25.9808C51.23 26.1916 51.7201 27.0482 52.1418 27.8845ZM48.326 31.9631C49.4631 32.6383 49.5948 32.7622 49.8377 33.3869L50.1039 34.0712L48.7973 33.9699C47.5425 33.8726 47.4753 33.85 47.1023 33.4025C46.8888 33.1462 46.4321 32.8288 46.0875 32.6971C45.5036 32.4742 45.3919 32.4734 44.4462 32.687C43.8881 32.8131 43.4155 32.8998 43.396 32.8798C43.3764 32.8598 43.5177 32.5773 43.7101 32.252C44.0204 31.7273 44.1343 31.6497 44.7189 31.5655C45.0813 31.5134 45.6314 31.4221 45.9413 31.3626C46.9215 31.1745 47.0537 31.2078 48.326 31.9631ZM3.71672 31.6649C2.27166 31.879 1.04029 32.8107 0.390653 34.1816C-0.134181 35.2892 -0.129815 36.7547 0.401499 37.8439C0.829424 38.7215 1.07578 39.0273 1.79218 39.5703C3.40571 40.7933 5.93889 40.6401 7.40577 39.2307C9.20227 37.5043 9.23255 34.5804 7.47155 32.8497C6.52175 31.9162 5.0836 31.4624 3.71672 31.6649ZM66.9813 31.6621C65.4886 31.8835 64.2843 32.7867 63.6345 34.1722C63.1142 35.2817 63.1147 36.7449 63.6359 37.8565C64.9883 40.7404 68.8528 41.2911 70.9872 38.9039C72.0345 37.7326 72.3202 35.6363 71.631 34.1816C70.7779 32.3815 68.9197 31.3746 66.9813 31.6621ZM5.70689 34.1457C6.41048 34.6711 6.64205 35.1334 6.64205 36.0128C6.64205 36.6258 6.56753 36.9371 6.3516 37.2263C5.27601 38.6669 3.50064 38.6669 2.42506 37.2263C2.01784 36.6809 2.01784 35.3447 2.42506 34.7993C3.27062 33.6668 4.68737 33.3847 5.70689 34.1457ZM68.9519 34.1457C69.6554 34.6711 69.887 35.1334 69.887 36.0128C69.887 36.6258 69.8125 36.9371 69.5966 37.2263C68.521 38.6669 66.7456 38.6669 65.67 37.2263C65.2628 36.6809 65.2628 35.3447 65.67 34.7993C66.5156 33.6668 67.9323 33.3847 68.9519 34.1457ZM45.7184 35.0413C46.194 35.6844 46.9957 35.97 48.6175 36.0733C51.1864 36.2373 50.8552 36.0321 52.2505 38.3244C52.9251 39.4328 53.4771 40.4385 53.4771 40.5595C53.4771 40.9945 52.5934 43.2913 51.9636 44.493C51.6102 45.1674 50.9239 46.2449 50.4385 46.8875C49.3194 48.3692 47.737 49.9462 47.6504 49.6665C47.616 49.5555 47.42 48.0385 47.2147 46.2954C46.8102 42.8601 46.7067 42.527 45.8632 41.9496C45.4192 41.6457 45.2816 41.6248 44.251 41.7043C43.6312 41.752 42.958 41.8278 42.7552 41.8729C42.4125 41.9488 42.3391 41.8681 41.7245 40.7405C40.739 38.9326 40.7407 38.8413 41.7874 37.1596C42.2711 36.3824 42.8114 35.6108 42.988 35.4448C43.2344 35.2134 44.5785 34.7353 45.3161 34.6169C45.3597 34.61 45.5407 34.8008 45.7184 35.0413ZM30.6332 43.8229C33.077 45.3398 33.4754 45.6808 33.4754 46.2556C33.4754 46.4885 30.5392 52.9002 30.3124 53.1627C30.2954 53.1824 30.0335 53.1127 29.7304 53.0081L29.1792 52.8176L29.1088 50.3333L29.0384 47.849L27.5775 46.3837C26.7742 45.5777 26.1404 44.8637 26.169 44.7969C26.3986 44.2629 27.9259 42.2129 28.0567 42.263C28.148 42.2981 29.3074 43 30.6332 43.8229ZM4.6099 43.2859C4.24493 43.7498 4.24423 43.7295 4.67596 45.2184C7.32112 54.3425 14.0906 62.0546 22.8312 65.9014C24.225 66.5149 27.7123 67.7057 28.1152 67.7057C28.5871 67.7057 29.1088 67.1586 29.1088 66.6636C29.1088 66.0153 28.6706 65.6754 27.3686 65.3136C26.056 64.9491 23.6807 64.0099 22.2068 63.2723C17.5383 60.9368 13.2707 57.0839 10.3377 52.5573C8.81646 50.2094 7.38887 47.0997 6.70994 44.6549C6.54091 44.0464 6.27117 43.4061 6.11045 43.2317C5.69337 42.7794 4.98824 42.8049 4.6099 43.2859ZM65.9175 43.2251C65.7533 43.403 65.4807 44.0464 65.3117 44.6549C64.7116 46.8154 63.3809 49.8267 62.0968 51.9297C59.7206 55.8208 55.8189 59.7226 51.9277 62.0987C49.8247 63.3829 46.8134 64.7136 44.653 65.3136C43.351 65.6754 42.9128 66.0153 42.9128 66.6636C42.9128 67.1586 43.4346 67.7057 43.9064 67.7057C44.3093 67.7057 47.7966 66.5149 49.1904 65.9014C53.7412 63.8986 58.1415 60.562 61.2516 56.7559C64.0192 53.3688 66.4411 48.6946 67.496 44.7042C67.7449 43.7626 67.7444 43.7408 67.466 43.3661C67.0783 42.8446 66.3311 42.7766 65.9175 43.2251ZM34.4407 63.5246C33.512 63.9153 33.047 64.2572 32.4884 64.9602C31.3581 66.3825 31.3424 68.7658 32.4533 70.2314C32.9963 70.9478 33.3021 71.1942 34.1797 71.6221C34.81 71.9296 35.1512 72 36.0108 72C37.5242 72 38.653 71.4388 39.5683 70.2314C40.7914 68.6179 40.6381 66.0847 39.2287 64.6178C37.9818 63.3204 36.0012 62.8681 34.4407 63.5246ZM36.8116 65.4614C38.0423 65.9276 38.6647 67.5093 38.07 68.6591C36.9541 70.8171 33.7336 70.0566 33.7336 67.6353C33.7336 66.0207 35.3238 64.8977 36.8116 65.4614Z"
          fill="#505257"/>
</svg>
