<?xml version="1.0" standalone="no"?>
<!DOCTYPE svg PUBLIC "-//W3C//DTD SVG 20010904//EN"
 "http://www.w3.org/TR/2001/REC-SVG-20010904/DTD/svg10.dtd">
<svg version="1.0" xmlns="http://www.w3.org/2000/svg"
 width="600.000000pt" height="400.000000pt" viewBox="0 0 600.000000 400.000000"
 preserveAspectRatio="xMidYMid meet">

<g transform="translate(0.000000,400.000000) scale(0.100000,-0.100000)"
fill="#000000" stroke="none">
<path d="M4498 3469 c-16 -9 -18 -27 -18 -147 0 -94 4 -142 12 -150 7 -7 42
-12 85 -12 l73 0 28 -45 c15 -25 32 -45 39 -45 6 0 24 20 40 45 l28 45 77 0
c107 0 108 1 108 159 0 111 -2 130 -18 144 -16 15 -47 17 -228 17 -123 0 -216
-5 -226 -11z m162 -39 c25 -25 25 -35 1 -59 -19 -19 -19 -19 1 -24 11 -3 22
-15 25 -26 3 -11 9 -18 14 -15 5 3 9 -6 9 -20 0 -19 5 -26 20 -26 11 0 20 -4
20 -10 0 -5 -9 -10 -20 -10 -13 0 -20 -7 -20 -20 0 -11 -4 -20 -10 -20 -5 0
-10 5 -10 10 0 6 -28 10 -65 10 l-65 0 0 34 c0 49 15 83 41 91 21 7 21 9 6 20
-22 16 -22 61 1 74 24 15 29 14 52 -9z m230 -64 c0 -8 -5 -18 -10 -21 -8 -5
-7 -11 1 -21 6 -8 8 -25 5 -39 -6 -23 -11 -26 -44 -23 -25 2 -37 8 -37 18 0 8
6 14 13 13 6 -2 17 -4 23 -5 22 -5 20 20 -2 25 -18 5 -20 9 -10 20 9 12 7 16
-9 20 -37 10 -21 27 25 27 33 0 45 -4 45 -14z"/>
<path d="M4668 3263 c7 -3 16 -2 19 1 4 3 -2 6 -13 5 -11 0 -14 -3 -6 -6z"/>
<path d="M4650 2984 c-78 -34 -105 -88 -91 -184 7 -53 7 -54 15 -22 5 22 13
32 26 32 11 0 24 8 29 18 10 16 10 16 11 0 0 -27 66 -25 80 2 15 29 30 25 36
-10 6 -25 10 -29 30 -24 20 5 24 2 24 -19 0 -13 -7 -30 -15 -37 -11 -9 -15
-33 -15 -86 0 -67 -2 -74 -19 -74 -19 0 -19 -2 -4 -46 13 -40 14 -75 4 -292
-6 -136 -14 -277 -17 -313 l-6 -67 45 5 45 5 7 -71 c4 -44 0 -165 -11 -315
-17 -233 -17 -253 0 -462 22 -277 27 -324 35 -319 4 2 -3 124 -16 272 -22 257
-22 275 -7 448 8 99 15 238 15 308 0 104 3 126 13 118 17 -14 106 -26 106 -15
0 5 -7 34 -15 64 -25 91 -29 223 -11 330 29 163 42 197 123 308 82 113 191
328 174 345 -5 5 -27 18 -49 27 l-39 18 -45 -97 c-49 -107 -173 -281 -199
-281 -25 0 -27 12 -21 150 3 78 0 141 -7 167 -29 107 -133 160 -231 117z"/>
<path d="M3966 2975 c-42 -15 -92 -58 -101 -86 -12 -36 10 -55 66 -58 29 -1
66 -9 82 -18 l30 -15 -7 29 c-6 26 -5 27 9 9 8 -11 15 -31 15 -44 0 -24 1 -24
19 -8 35 32 57 -9 26 -50 -16 -21 -20 -64 -6 -64 4 0 20 9 35 21 l26 20 0 -33
c0 -42 31 -93 69 -112 27 -15 111 -33 111 -25 0 2 -11 26 -25 53 -20 39 -25
63 -24 115 2 123 11 127 47 23 25 -75 46 -113 111 -201 l80 -109 -9 -179 c-5
-98 -10 -224 -10 -279 0 -90 2 -103 20 -115 18 -13 19 -17 5 -74 -21 -86 -38
-353 -30 -453 6 -77 10 -89 37 -115 31 -32 60 -33 124 -6 l32 14 -13 45 c-7
25 -23 81 -36 125 -22 75 -23 95 -22 318 2 146 -1 237 -7 237 -6 0 -10 -21
-10 -47 0 -82 -8 -41 -14 72 -4 61 -9 152 -12 203 l-5 92 73 1 73 1 -65 10
c-80 11 -110 35 -110 89 0 29 9 47 43 85 63 72 77 95 77 131 0 27 -4 33 -20
33 -31 0 -70 44 -70 80 0 16 -4 30 -10 30 -5 0 -7 -7 -4 -15 8 -19 -5 -105
-14 -105 -4 0 -27 28 -51 62 -29 41 -56 97 -78 165 -20 59 -40 103 -48 103 -7
0 -32 -7 -55 -15 -39 -14 -45 -14 -61 1 -13 12 -29 15 -53 11 -26 -4 -40 -1
-58 15 -53 47 -113 58 -182 33z"/>
<path d="M3295 2954 c-57 -53 -9 -127 69 -106 19 6 39 6 47 1 8 -5 29 -9 48
-9 28 0 33 -3 28 -20 -4 -15 0 -20 14 -20 26 0 25 -40 -1 -70 -23 -27 -24 -32
-8 -48 31 -31 68 -1 68 55 0 15 7 37 15 47 8 11 15 41 15 67 0 42 -5 53 -38
88 l-37 39 -97 1 c-89 0 -98 -2 -123 -25z"/>
<path d="M643 2917 c-13 -5 -23 -16 -23 -24 0 -7 -6 -16 -12 -18 -9 -4 -14
-33 -16 -87 -2 -73 1 -86 23 -120 29 -43 35 -45 59 -19 14 15 15 24 7 40 -17
30 -13 51 8 51 11 0 23 -4 26 -10 3 -5 16 -10 28 -10 12 0 28 -9 35 -20 15
-24 35 -26 53 -3 13 15 12 15 -9 2 -22 -13 -25 -12 -39 9 -9 12 -23 22 -32 22
-10 0 -20 14 -27 35 l-11 35 33 0 c19 0 34 5 34 11 0 5 5 7 11 3 7 -4 7 -9 1
-13 -5 -3 -13 -17 -17 -31 -7 -23 -7 -23 9 -7 22 22 32 21 45 0 6 -10 11 -13
11 -7 0 6 -3 14 -7 18 -10 10 -13 36 -4 36 5 0 13 -15 19 -32 l10 -33 1 33 c1
18 5 40 10 50 41 81 40 109 -4 92 -31 -12 -75 -13 -75 -2 0 11 -122 11 -147
-1z"/>
<path d="M3341 2521 c-26 -26 -95 -175 -83 -179 5 -1 18 -9 28 -17 17 -12 19
-29 19 -202 1 -103 4 -196 9 -205 5 -10 -20 -124 -68 -307 -42 -160 -76 -296
-76 -302 0 -10 241 -352 245 -347 1 2 -3 62 -9 133 -10 121 -13 134 -44 184
l-34 54 27 58 26 59 -12 161 c-9 122 -9 166 -1 180 10 15 9 17 -3 13 -12 -5
-15 4 -15 50 l0 55 81 -29 c44 -17 82 -30 84 -30 2 0 6 -8 8 -17 4 -15 5 -15
6 -2 1 9 17 21 39 27 l39 12 7 176 c9 228 14 268 33 252 12 -10 21 -5 48 28
27 30 34 48 35 81 0 38 -4 45 -51 82 -63 50 -114 63 -135 33 -32 -45 -150 -46
-161 -1 -7 24 -18 24 -42 0z"/>
<path d="M609 2508 c-7 -13 -29 -42 -50 -65 -68 -74 -71 -114 -19 -302 13 -49
20 -105 20 -162 0 -48 4 -90 8 -93 5 -3 4 -35 -1 -73 -4 -37 -10 -192 -12
-343 -2 -151 -12 -398 -21 -549 -14 -212 -15 -276 -6 -279 14 -4 16 -34 3 -48
-6 -5 -13 -28 -17 -52 l-7 -42 157 0 c146 0 156 1 156 19 0 25 -13 34 -102 66
-80 28 -88 37 -65 64 8 10 23 90 36 196 12 99 28 218 35 265 l12 85 12 -40 c7
-22 35 -145 64 -273 33 -146 57 -232 65 -232 19 0 25 -37 18 -101 l-7 -59 145
0 c87 0 148 4 152 10 3 6 3 19 0 30 -5 14 -30 27 -95 47 -76 24 -89 31 -93 53
-3 14 -1 26 3 28 5 2 7 9 5 15 -10 28 -85 593 -95 712 -21 259 -30 361 -36
408 -3 26 -4 47 -1 47 3 0 40 -7 84 -15 102 -20 140 -13 148 27 9 40 -9 52
-122 78 l-93 21 0 50 0 51 26 -31 c14 -17 36 -31 47 -31 46 0 386 64 402 76
25 18 13 80 -17 87 -11 3 -91 -3 -176 -14 -85 -11 -156 -19 -157 -17 -1 2 -44
73 -95 158 -77 128 -129 206 -158 240 -3 3 -7 0 -9 -7 -3 -9 -16 -8 -51 3 -64
19 -79 18 -93 -8z"/>
<path d="M3912 2456 c-24 -41 -42 -87 -42 -104 0 -16 14 -62 30 -100 28 -66
30 -80 30 -195 l0 -123 131 -18 c72 -10 132 -16 134 -14 1 1 12 70 23 153 17
122 19 152 8 165 -114 137 -126 153 -126 178 0 45 26 72 68 72 l37 1 -24 19
c-34 29 -61 25 -122 -20 -36 -28 -62 -40 -79 -38 -23 3 -25 7 -23 51 1 26 0
47 -1 47 -1 0 -21 -33 -44 -74z"/>
<path d="M2180 2341 l0 -100 -57 -11 c-215 -42 -344 -156 -372 -329 -26 -160
39 -285 186 -360 49 -24 91 -39 226 -77 15 -5 17 -21 17 -160 l0 -154 -28 0
c-49 0 -175 40 -255 82 -43 22 -79 39 -81 37 -2 -2 -25 -51 -50 -108 -32 -72
-43 -107 -36 -116 18 -21 164 -84 243 -105 43 -11 108 -23 143 -26 l64 -7 0
-98 0 -99 90 0 90 0 0 99 c0 104 3 111 51 111 18 0 19 8 19 125 0 69 -1 125
-3 125 -1 0 -17 -4 -35 -9 l-32 -10 0 131 c0 141 -2 136 53 113 16 -7 17 3 17
133 l0 140 -35 6 -35 7 0 161 0 161 35 -6 35 -6 0 125 0 124 -35 0 -35 0 0
100 0 100 -90 0 -90 0 0 -99z m-4 -609 c-9 -9 -96 40 -116 65 -25 32 -26 85
-3 124 10 16 40 41 68 55 l50 25 3 -132 c1 -72 0 -134 -2 -137z"/>
<path d="M2786 2282 c-4 -12 -19 -29 -34 -37 -18 -10 -22 -14 -10 -15 9 0 25
-11 35 -24 19 -23 20 -23 31 -5 15 24 15 48 -2 78 l-14 24 -6 -21z"/>
<path d="M2825 2110 c-4 -6 -3 -16 3 -22 6 -6 12 -6 17 2 4 6 3 16 -3 22 -6 6
-12 6 -17 -2z"/>
<path d="M3916 1825 c-4 -44 -14 -112 -20 -152 -11 -61 -11 -73 1 -78 19 -7
58 -7 65 1 3 3 -1 33 -9 67 -8 34 -18 103 -22 152 l-7 90 -8 -80z"/>
<path d="M3512 1238 l-2 -567 -27 -3 c-23 -2 -29 -8 -31 -34 -3 -30 -7 -32
-49 -39 -34 -5 -56 -16 -80 -40 -60 -60 -51 -65 101 -65 106 0 135 3 139 14 3
8 43 35 89 60 130 71 127 67 94 107 -16 19 -36 37 -45 40 -9 3 -16 10 -16 15
0 5 -29 59 -65 119 l-65 110 -7 -55 c-12 -108 -11 -116 35 -173 l44 -53 -44
-38 c-24 -21 -47 -35 -51 -31 -4 4 -9 275 -12 603 l-6 597 -2 -567z m204 -599
c10 -17 -13 -36 -27 -22 -12 12 -4 33 11 33 5 0 12 -5 16 -11z m-200 -100 c10
-17 -13 -36 -27 -22 -12 12 -4 33 11 33 5 0 12 -5 16 -11z"/>
<path d="M5320 1523 c-30 -20 -56 -37 -58 -38 -5 -4 33 -65 41 -65 11 0 8 14
-8 37 -13 19 -13 22 10 37 32 21 35 21 36 -11 0 -16 4 -37 9 -48 7 -15 9 -10
9 23 1 26 5 41 11 37 6 -3 10 -26 10 -50 0 -24 5 -47 10 -50 6 -4 10 7 10 25
0 18 4 29 10 25 6 -3 10 -25 11 -48 0 -37 1 -39 10 -18 l10 24 29 -28 c56 -54
30 -6 -40 73 -52 59 -66 82 -58 90 26 26 0 18 -52 -15z"/>
<path d="M1801 1526 c-9 -11 -8 -15 5 -20 21 -8 34 1 27 19 -7 19 -17 19 -32
1z"/>
<path d="M5014 1427 l-132 -20 -7 -64 c-4 -36 -4 -67 -1 -70 6 -6 275 75 288
86 5 4 2 25 -5 47 l-12 40 -131 -19z"/>
<path d="M1560 1123 c-87 -7 -120 -15 -120 -28 0 -16 65 -28 124 -23 31 2 40
7 42 25 4 26 -1 29 -46 26z"/>
<path d="M2865 1066 c-38 -12 -39 -14 -17 -23 23 -9 23 -9 -21 -56 -41 -44
-46 -47 -95 -47 l-51 0 -17 -55 -18 -55 -62 0 c-69 0 -60 10 -80 -90 -4 -24
-13 -31 -42 -40 -20 -5 -45 -10 -54 -10 -10 0 -18 -6 -18 -14 0 -12 8 -12 58
0 31 7 60 13 64 14 4 0 10 20 14 45 9 62 24 75 87 75 l52 0 15 53 15 52 56 5
c52 5 59 8 97 53 24 28 42 42 42 33 0 -21 16 -21 24 0 8 22 7 74 -1 73 -5 0
-26 -6 -48 -13z"/>
<path d="M1510 931 c0 -12 -9 -21 -25 -25 -14 -4 -32 -17 -41 -31 -23 -36 -11
-72 31 -92 26 -12 35 -23 35 -41 0 -25 -7 -26 -52 -7 -11 4 -18 0 -23 -16 -8
-25 7 -39 43 -39 15 0 26 -7 29 -20 6 -23 33 -27 33 -5 0 8 15 21 34 29 61 25
61 96 1 117 -27 10 -35 19 -35 37 0 22 3 24 30 19 17 -4 30 -2 30 2 0 5 3 16
6 25 4 11 -4 17 -30 22 -26 4 -36 11 -36 25 0 11 -7 19 -15 19 -8 0 -15 -9
-15 -19z m0 -86 c0 -8 -4 -15 -10 -15 -5 0 -10 7 -10 15 0 8 5 15 10 15 6 0
10 -7 10 -15z m50 -99 c0 -8 -4 -18 -10 -21 -5 -3 -10 3 -10 14 0 12 5 21 10
21 6 0 10 -6 10 -14z"/>
<path d="M4213 886 c-17 -6 -34 -14 -38 -17 -3 -4 8 -49 24 -100 19 -60 27
-96 20 -100 -6 -3 -17 -18 -25 -34 -12 -24 -12 -26 2 -21 9 3 19 6 24 6 4 0
15 12 25 26 14 21 14 28 4 35 -9 5 -5 10 15 15 23 5 26 11 22 33 -3 14 -11 55
-17 91 -6 36 -14 68 -18 71 -3 4 -20 1 -38 -5z"/>
<path d="M3870 812 c0 -16 3 -63 6 -105 l7 -77 32 0 c32 0 32 0 39 61 3 34 6
82 6 105 l0 44 -45 0 c-43 0 -45 -1 -45 -28z"/>
<path d="M4833 653 c35 -4 37 -6 37 -39 0 -39 -4 -41 -45 -14 -33 22 -45 25
-45 10 0 -5 14 -17 31 -25 17 -9 29 -19 26 -21 -3 -3 -23 4 -46 15 -45 24 -51
25 -51 12 0 -5 9 -13 20 -16 21 -7 28 -25 9 -25 -6 0 -22 9 -36 20 -32 25 -52
26 -30 2 21 -23 13 -32 -25 -32 -15 0 -28 -4 -28 -10 0 -13 -6 -13 113 6 83
13 101 14 108 2 5 -8 9 14 9 55 l0 67 -42 -2 -43 -1 38 -4z"/>
<path d="M3826 599 c-19 -19 -19 -19 13 -19 29 0 61 18 61 34 0 14 -57 3 -74
-15z"/>
<path d="M4220 573 c-127 -51 -126 -50 -117 -59 8 -8 247 87 247 98 0 12 -7
10 -130 -39z"/>
<path d="M3700 520 c0 -6 52 -10 135 -10 83 0 135 4 135 10 0 6 -52 10 -135
10 -83 0 -135 -4 -135 -10z"/>
</g>
</svg>
