<?xml version="1.0" encoding="UTF-8"?>
<svg version="1.1" xmlns="http://www.w3.org/2000/svg" width="2048" height="2048">
<path d="M0 0 C-1.30157049 4.00279067 -2.72782454 7.65897309 -4.6875 11.38671875 C-5.21585449 12.39710205 -5.74420898 13.40748535 -6.28857422 14.44848633 C-6.85334473 15.51736084 -7.41811523 16.58623535 -8 17.6875 C-8.88002686 19.36525513 -8.88002686 19.36525513 -9.77783203 21.0769043 C-10.96614072 23.34103536 -12.15638642 25.60415092 -13.34863281 27.86621094 C-14.75546089 30.53593968 -16.15698165 33.2083018 -17.5546875 35.8828125 C-21.104487 42.66557113 -24.68768058 49.42915837 -28.3203125 56.16796875 C-36.65464349 71.6358743 -44.77264528 87.20196046 -52.78497314 102.83901978 C-53.15370544 103.55858856 -53.52243774 104.27815735 -53.90234375 105.01953125 C-54.26382507 105.72500092 -54.6253064 106.43047058 -54.9977417 107.15731812 C-58.4971976 113.98084266 -62.06172904 120.76888592 -65.6484375 127.546875 C-68.45567338 132.85238184 -71.22668737 138.17670536 -74 143.5 C-78.05206339 151.27533811 -82.12191362 159.04092004 -86.2109375 166.796875 C-89.49086318 173.02246641 -92.74786086 179.25985485 -96 185.5 C-100.05219179 193.27527155 -104.1219133 201.04091943 -108.2109375 208.796875 C-111.49086358 215.02246719 -114.74770078 221.25993772 -118 227.5 C-131.22253334 252.85693844 -131.22253334 252.85693844 -137.32421875 264.17578125 C-145.65764498 279.64087067 -153.77397325 295.20455216 -161.78497314 310.83901978 C-162.15370544 311.55858856 -162.52243774 312.27815735 -162.90234375 313.01953125 C-163.26382507 313.72500092 -163.6253064 314.43047058 -163.9977417 315.15731812 C-167.4971976 321.98084266 -171.06172904 328.76888592 -174.6484375 335.546875 C-177.45567338 340.85238184 -180.22668737 346.17670536 -183 351.5 C-187.05206339 359.27533811 -191.12191362 367.04092004 -195.2109375 374.796875 C-198.49086322 381.02246649 -201.74784366 387.25986375 -205 393.5 C-208.27040266 399.7748091 -211.54397748 406.04779349 -214.8425293 412.30786133 C-215.6494445 413.84046732 -216.45432926 415.37414423 -217.25708008 416.90893555 C-219.49327635 421.1777077 -221.77405586 425.41694777 -224.1015625 429.63671875 C-224.61581787 430.58272949 -225.13007324 431.52874023 -225.65991211 432.50341797 C-226.65533525 434.33390202 -227.6633951 436.15758796 -228.68579102 437.97314453 C-229.13365967 438.80313965 -229.58152832 439.63313477 -230.04296875 440.48828125 C-230.64661255 441.57943237 -230.64661255 441.57943237 -231.26245117 442.69262695 C-232.88461917 447.76747295 -230.72687369 451.99405404 -228.39764404 456.53094482 C-228.04083557 457.20522522 -227.6840271 457.87950562 -227.31640625 458.57421875 C-226.94549866 459.29095764 -226.57459106 460.00769653 -226.19244385 460.74615479 C-224.99039201 463.06416056 -223.77669809 465.37583699 -222.5625 467.6875 C-221.7274359 469.29139792 -220.8930471 470.89564761 -220.05932617 472.50024414 C-218.05608642 476.35104288 -216.04368233 480.19694632 -214.02709961 484.04077148 C-212.71667293 486.54045631 -211.41282541 489.0435467 -210.109375 491.546875 C-206.68724593 498.10014297 -203.2069471 504.62108171 -199.69921875 511.12890625 C-191.36035238 526.61088549 -183.23399434 542.18900242 -175.21502686 557.83901978 C-174.84629456 558.55858856 -174.47756226 559.27815735 -174.09765625 560.01953125 C-173.73617493 560.72500092 -173.3746936 561.43047058 -173.0022583 562.15731812 C-169.5028024 568.98084266 -165.93827096 575.76888592 -162.3515625 582.546875 C-159.54432662 587.85238184 -156.77331263 593.17670536 -154 598.5 C-150.34795015 605.50776856 -146.68536573 612.5096934 -143 619.5 C-138.79694496 627.47224633 -134.62612488 635.46103957 -130.4609375 643.453125 C-126.91935812 650.24569264 -123.35933432 657.02826049 -119.78466797 663.8034668 C-117.55387809 668.03523711 -115.33580499 672.2732154 -113.1328125 676.51953125 C-108.09331355 686.22938338 -102.99995073 695.90201743 -97.75 705.5 C-97.255 706.40983643 -96.76 707.31967285 -96.25 708.25708008 C-94.01072861 712.36552938 -91.74893293 716.45403558 -89.3984375 720.5 C-89.01075195 721.18255859 -88.62306641 721.86511719 -88.22363281 722.56835938 C-87.20714639 724.35556839 -86.17082296 726.13145564 -85.1328125 727.90625 C-83.66525513 731.91419979 -84.42586619 733.06797066 -86 737 C-87.34727794 739.88397378 -88.79606587 742.7098126 -90.26171875 745.53515625 C-90.68417374 746.35777451 -91.10662872 747.18039276 -91.54188538 748.02793884 C-92.9196664 750.70825377 -94.30350525 753.38538906 -95.6875 756.0625 C-96.64846315 757.92885568 -97.60907225 759.79539371 -98.56933594 761.66210938 C-101.37397778 767.11096067 -104.18633344 772.55580494 -107 778 C-107.72809699 779.40995753 -108.4561303 780.81994794 -109.18408203 782.22998047 C-112.23030608 788.12955733 -115.28136622 794.02661472 -118.3359375 799.921875 C-122.36070003 807.69187233 -126.36887349 815.47038131 -130.375 823.25 C-130.72953247 823.93843994 -131.08406494 824.62687988 -131.44934082 825.33618164 C-133.2472942 828.82756335 -135.0450793 832.31903168 -136.84277344 835.81054688 C-140.7471783 843.39350016 -144.65375247 850.97533618 -148.55993652 858.55737305 C-149.62070052 860.61636665 -150.68144986 862.67536781 -151.7421875 864.734375 C-152.09240967 865.41419434 -152.44263184 866.09401367 -152.8034668 866.79443359 C-154.9490634 870.95944423 -157.09414535 875.1247195 -159.23884583 879.29019165 C-166.29322974 892.99127333 -173.35271868 906.68960822 -180.4375 920.375 C-185.93315827 930.99154603 -191.40939042 941.61795412 -196.875 952.25 C-197.6333808 953.72509836 -198.39176296 955.20019601 -199.15014648 956.67529297 C-200.67143801 959.63441374 -202.19267356 962.59356328 -203.71386719 965.55273438 C-204.09087769 966.28613037 -204.46788818 967.01952637 -204.85632324 967.77514648 C-205.62010543 969.26097146 -206.38385858 970.74681135 -207.14758301 972.23266602 C-224.33810726 1005.67648223 -224.33810726 1005.67648223 -233 1022 C-236.6428114 1020.78572953 -237.09303605 1019.41236963 -238.77790833 1016.11207581 C-239.11803452 1015.4215361 -239.45816071 1014.7309964 -239.80859375 1014.01953125 C-240.17115768 1013.30405624 -240.53372162 1012.58858124 -240.90727234 1011.85142517 C-241.68631029 1010.31196917 -242.46098191 1008.77029745 -243.23175049 1007.22668457 C-245.25596947 1003.1737381 -247.31157093 999.13673488 -249.36328125 995.09765625 C-249.76774475 994.29927338 -250.17220825 993.5008905 -250.58892822 992.67831421 C-253.65500271 986.63834325 -256.83651144 980.67205889 -260.125 974.75 C-264.92158517 966.08528214 -269.48112566 957.31145468 -274 948.5 C-278.54014986 939.64721943 -283.12337602 930.83309683 -287.9375 922.125 C-293.36937935 912.29659952 -298.49519106 902.32153886 -303.61248779 892.32727051 C-308.43385698 882.91618313 -313.35620245 873.57918921 -318.47265625 864.32421875 C-322.79905945 856.45909988 -326.90402614 848.48657922 -331 840.5 C-335.56144497 831.60597774 -340.16664548 822.75049623 -345 814 C-349.83335982 805.24949418 -354.43835529 796.39392775 -359 787.5 C-363.71046141 778.31709583 -368.47008732 769.17267196 -373.4375 760.125 C-373.91606445 759.25246582 -374.39462891 758.37993164 -374.88769531 757.48095703 C-376.71701142 754.14966942 -378.54881622 750.81975419 -380.38134766 747.49023438 C-381.67940381 745.12299846 -382.9661148 742.74994403 -384.25 740.375 C-384.63341553 739.68164551 -385.01683105 738.98829102 -385.41186523 738.27392578 C-387.26286987 734.82884377 -388 733.00315136 -388 729 C-386.92361776 726.61975837 -385.80205857 724.37339891 -384.5546875 722.0859375 C-384.19330185 721.40774963 -383.8319162 720.72956177 -383.45957947 720.03082275 C-382.27255635 717.80791788 -381.07390093 715.59151782 -379.875 713.375 C-379.0457544 711.82769348 -378.21722881 710.28000088 -377.3894043 708.73193359 C-375.31664695 704.86045497 -373.23448488 700.99413434 -371.14874268 697.12963867 C-369.49997683 694.07301374 -367.85751525 691.01302949 -366.21484375 687.953125 C-363.9550842 683.74752356 -361.69043197 679.54461215 -359.421875 675.34375 C-355.78767096 668.61187954 -352.17340821 661.86938719 -348.5625 655.125 C-347.93964111 653.96178223 -347.31678223 652.79856445 -346.67504883 651.60009766 C-345.41363053 649.2441976 -344.15234358 646.88822727 -342.89111328 644.53222656 C-339.76209039 638.68742893 -336.63087309 632.84380667 -333.5 627 C-332.24999097 624.66667151 -330.99999097 622.33333817 -329.75 620 C-312.25 587.33333333 -294.75 554.66666667 -277.25 522 C-276.63116943 520.84483887 -276.01233887 519.68967773 -275.37475586 518.49951172 C-274.1256058 516.16778663 -272.87641964 513.83608088 -271.62719727 511.50439453 C-267.39353768 503.6022414 -267.39353768 503.6022414 -263.16218567 495.69885254 C-262.53064191 494.5194419 -261.89855156 493.3403238 -261.26591492 492.16149902 C-259.70010036 489.24248555 -258.14525173 486.31846272 -256.60522461 483.38574219 C-253.47886594 477.46053623 -250.22992917 471.69013606 -246.6640625 466.0234375 C-239.90587065 456.05653286 -239.90587065 456.05653286 -236.97851562 444.72412109 C-238.03182918 440.2302 -240.66478319 436.85227001 -243.42626953 433.23876953 C-246.57058905 428.76569941 -248.80967414 423.75491502 -251.25 418.875 C-255.78138015 410.12709126 -260.44282916 401.45579815 -265.18725586 392.82202148 C-270.53773604 383.06649595 -275.74235371 373.23423872 -280.95019531 363.40209961 C-281.63993519 362.10007712 -282.32971319 360.79807482 -283.01953125 359.49609375 C-283.35181732 358.86887924 -283.68410339 358.24166473 -284.02645874 357.59544373 C-287.3219685 351.38129491 -290.65606768 345.18821169 -294 339 C-300.76616173 351.16893825 -307.3243007 363.41076541 -313.46191406 375.91015625 C-316.87297794 382.83527803 -320.44197349 389.66797243 -324.04864502 396.49241638 C-328.30486222 404.55492277 -332.46610403 412.66461071 -336.61431885 420.78308105 C-342.41108735 432.12628074 -348.21231465 443.46666958 -354.125 454.75 C-359.06831127 464.184097 -363.94580716 473.65123213 -368.8125 483.125 C-374.42424277 494.04855994 -380.04260201 504.96853075 -385.6875 515.875 C-385.99195038 516.46327576 -386.29640076 517.05155151 -386.6100769 517.65765381 C-388.73952884 521.77203975 -390.8697694 525.88601719 -393 530 C-395.45886006 534.74972755 -397.91722492 539.49971096 -400.375 544.25 C-400.68109192 544.84155884 -400.98718384 545.43311768 -401.30255127 546.04260254 C-406.7650221 556.60058428 -412.2089204 567.16808304 -417.64984131 577.73718262 C-422.97925011 588.08873629 -428.3292236 598.42933759 -433.69384766 608.76269531 C-438.29227043 617.62463439 -442.86778351 626.49823272 -447.4375 635.375 C-452.82402809 645.8381621 -458.21675897 656.29804246 -463.625 666.75 C-463.93140411 667.34218323 -464.23780823 667.93436646 -464.55349731 668.54449463 C-467.31306862 673.87762527 -470.0735664 679.21027631 -472.83398438 684.54296875 C-474.68124269 688.11184826 -476.5282692 691.6808475 -478.375 695.25 C-478.68100128 695.84137756 -478.98700256 696.43275513 -479.30227661 697.04205322 C-484.76483659 707.60021929 -490.20882672 718.16790106 -495.64984131 728.73718262 C-500.97850041 739.08728011 -506.32757057 749.42650554 -511.69165039 759.75830078 C-516.31242094 768.66297238 -520.90879352 777.58005887 -525.5 786.5 C-530.65127153 796.50805322 -535.81345964 806.51016486 -541 816.5 C-546.1648931 826.44858031 -551.30689937 836.40870389 -556.4375 846.375 C-561.82402809 856.8381621 -567.21675897 867.29804246 -572.625 877.75 C-572.93140411 878.34218323 -573.23780823 878.93436646 -573.55349731 879.54449463 C-576.31306862 884.87762527 -579.0735664 890.21027631 -581.83398438 895.54296875 C-583.68124269 899.11184826 -585.5282692 902.6808475 -587.375 906.25 C-587.68100128 906.84137756 -587.98700256 907.43275513 -588.30227661 908.04205322 C-593.76483659 918.60021929 -599.20882672 929.16790106 -604.64984131 939.73718262 C-609.9722026 950.07504759 -615.31174967 960.40373536 -620.67407227 970.72094727 C-623.94771523 977.02436629 -627.20108672 983.33756223 -630.4375 989.66015625 C-631.58384415 991.89655629 -632.73039012 994.13285278 -633.87695312 996.36914062 C-634.61390108 997.80843202 -635.34961995 999.24835355 -636.08398438 1000.68896484 C-637.11538899 1002.71221466 -638.15108388 1004.73322004 -639.1875 1006.75390625 C-639.77917969 1007.91220947 -640.37085938 1009.0705127 -640.98046875 1010.26391602 C-641.29924408 1010.84642187 -641.6180194 1011.42892773 -641.94645458 1012.02908528 C-642.73120663 1013.49715617 -643.45823395 1014.99636522 -644.15378374 1016.50874031 C-647.65514231 1023.42758609 -647.65514231 1023.42758609 -651.17593968 1024.92614865 C-653.86897456 1025.28106211 -656.40871351 1025.31287776 -659.12440491 1025.24050903 C-660.14293326 1025.25313683 -661.16146162 1025.26576463 -662.21085447 1025.2787751 C-665.62921592 1025.30898268 -669.04298414 1025.26781466 -672.46118164 1025.22705078 C-674.91573665 1025.23409651 -677.37028238 1025.24553649 -679.82479858 1025.2610321 C-685.13374113 1025.28458049 -690.44129503 1025.27732921 -695.7500782 1025.24249649 C-703.54399403 1025.19147442 -711.33712036 1025.19692636 -719.13114565 1025.21492384 C-731.93420219 1025.24296969 -744.73680052 1025.22624691 -757.53979492 1025.18164062 C-769.70391611 1025.13935791 -781.86778451 1025.11599177 -794.03198242 1025.12207031 C-794.76725531 1025.12243024 -795.5025282 1025.12279016 -796.26008208 1025.12316099 C-799.96310161 1025.12510195 -803.66612075 1025.12745342 -807.36913991 1025.12999582 C-832.26979387 1025.14660119 -857.17020901 1025.12260955 -882.07080078 1025.06738281 C-913.25701866 1024.99828654 -944.44299356 1024.98352277 -975.62928843 1024.99136114 C-981.5410313 1024.99271184 -987.45277423 1024.99329205 -993.36451721 1024.993927 C-1003.90967837 1024.99516939 -1014.45483914 1024.99722502 -1025 1025 C-1023.79511809 1021.30192659 -1022.56361743 1017.91652725 -1020.671875 1014.515625 C-1019.97795654 1013.25733887 -1019.97795654 1013.25733887 -1019.27001953 1011.97363281 C-1018.76841309 1011.07483398 -1018.26680664 1010.17603516 -1017.75 1009.25 C-1016.65812016 1007.27123818 -1015.56700556 1005.29205395 -1014.4765625 1003.3125 C-1013.90583008 1002.27867187 -1013.33509766 1001.24484375 -1012.74707031 1000.1796875 C-1009.83948825 994.88785565 -1006.98266722 989.56890433 -1004.125 984.25 C-1003.54218262 983.16654297 -1002.95936523 982.08308594 -1002.35888672 980.96679688 C-1000.57199394 977.64485198 -998.78588526 974.32248664 -997 971 C-989.90609612 957.8023991 -982.79977256 944.61281904 -975.60888672 931.46777344 C-971.20286698 923.40000388 -966.86528433 915.29599617 -962.53201294 907.18902588 C-958.38938299 899.44017456 -954.2195067 891.70729877 -950 884 C-945.47460815 875.73291346 -941.00655113 867.43602229 -936.5625 859.125 C-931.35096962 849.37885152 -926.1119436 839.64820939 -920.84179688 829.93359375 C-916.90262418 822.6708944 -912.97834163 815.40030449 -909.0625 808.125 C-908.19250366 806.50875732 -908.19250366 806.50875732 -907.30493164 804.85986328 C-904.34384582 799.35783185 -901.38435458 793.85494529 -898.42578125 788.3515625 C-892.52086152 777.37139343 -886.59222673 766.40540741 -880.60888672 755.46777344 C-876.20286698 747.40000388 -871.86528433 739.29599617 -867.53201294 731.18902588 C-863.38938299 723.44017456 -859.2195067 715.70729877 -855 708 C-850.47460815 699.73291346 -846.00655113 691.43602229 -841.5625 683.125 C-836.35174192 673.38029579 -831.11383771 663.65090665 -825.84399414 653.93798828 C-821.88155782 646.63305983 -817.93708219 639.31862185 -814 632 C-809.51289262 623.6596379 -805.01426864 615.32569235 -800.5 607 C-796.00828909 598.71506139 -791.52940498 590.42334029 -787.0625 582.125 C-786.48258301 581.04766602 -785.90266602 579.97033203 -785.30517578 578.86035156 C-782.34402806 573.3581469 -779.38444071 567.85510549 -776.42578125 562.3515625 C-770.52086152 551.37139343 -764.59222673 540.40540741 -758.60888672 529.46777344 C-754.20286698 521.40000388 -749.86528433 513.29599617 -745.53201294 505.18902588 C-741.38938299 497.44017456 -737.2195067 489.70729877 -733 482 C-728.47460815 473.73291346 -724.00655113 465.43602229 -719.5625 457.125 C-714.35096962 447.37885152 -709.1119436 437.64820939 -703.84179688 427.93359375 C-699.90262418 420.6708944 -695.97834163 413.40030449 -692.0625 406.125 C-691.48250244 405.04750488 -690.90250488 403.97000977 -690.30493164 402.85986328 C-687.34384582 397.35783185 -684.38435458 391.85494529 -681.42578125 386.3515625 C-675.52086152 375.37139343 -669.59222673 364.40540741 -663.60888672 353.46777344 C-659.20286698 345.40000388 -654.86528433 337.29599617 -650.53201294 329.18902588 C-646.38938299 321.44017456 -642.2195067 313.70729877 -638 306 C-633.47460815 297.73291346 -629.00655113 289.43602229 -624.5625 281.125 C-619.35174192 271.38029579 -614.11383771 261.65090665 -608.84399414 251.93798828 C-604.88155782 244.63305983 -600.93708219 237.31862185 -597 230 C-592.51289262 221.6596379 -588.01426864 213.32569235 -583.5 205 C-579.00828909 196.71506139 -574.52940498 188.42334029 -570.0625 180.125 C-569.48258301 179.04766602 -568.90266602 177.97033203 -568.30517578 176.86035156 C-565.34402806 171.3581469 -562.38444071 165.85510549 -559.42578125 160.3515625 C-553.52086152 149.37139343 -547.59222673 138.40540741 -541.60888672 127.46777344 C-537.20286698 119.40000388 -532.86528433 111.29599617 -528.53201294 103.18902588 C-524.38938299 95.44017456 -520.2195067 87.70729877 -516 80 C-511.14995688 71.13983328 -506.36862899 62.24377417 -501.60617065 53.33633423 C-496.62296671 44.0165968 -491.6096704 34.71364682 -486.56274414 25.42822266 C-483.62104567 20.01149742 -480.70486946 14.5817847 -477.80639648 9.1418457 C-477.43880974 8.45227028 -477.07122299 7.76269485 -476.69249725 7.05222321 C-475.79484975 5.36822791 -474.89740402 3.68412506 -474 2 C-430.22304865 1.74124247 -386.44607703 1.48617723 -342.66907785 1.23563546 C-337.42464876 1.20561791 -332.18021984 1.17557174 -326.93579102 1.14550781 C-325.89232601 1.13952658 -324.84886101 1.13354535 -323.77377585 1.12738287 C-309.2205183 1.04390341 -294.66727041 0.95889395 -280.11402918 0.87261605 C-254.99661408 0.72371087 -229.879183 0.57788819 -204.76171875 0.4375 C-203.78191361 0.43201676 -202.80210846 0.42653353 -201.79261225 0.42088413 C-134.52771696 0.04501438 -67.26598397 -0.14556249 0 0 Z " fill="#0B7F3B" transform="translate(1539,529)"/>
<path d="M0 0 C-1.30157049 4.00279067 -2.72782454 7.65897309 -4.6875 11.38671875 C-5.21585449 12.39710205 -5.74420898 13.40748535 -6.28857422 14.44848633 C-7.13572998 16.0517981 -7.13572998 16.0517981 -8 17.6875 C-8.88002686 19.36525513 -8.88002686 19.36525513 -9.77783203 21.0769043 C-10.96614072 23.34103536 -12.15638642 25.60415092 -13.34863281 27.86621094 C-14.75546089 30.53593968 -16.15698165 33.2083018 -17.5546875 35.8828125 C-21.104487 42.66557113 -24.68768058 49.42915837 -28.3203125 56.16796875 C-36.65464349 71.6358743 -44.77264528 87.20196046 -52.78497314 102.83901978 C-53.15370544 103.55858856 -53.52243774 104.27815735 -53.90234375 105.01953125 C-54.26382507 105.72500092 -54.6253064 106.43047058 -54.9977417 107.15731812 C-58.4971976 113.98084266 -62.06172904 120.76888592 -65.6484375 127.546875 C-68.45567338 132.85238184 -71.22668737 138.17670536 -74 143.5 C-78.05206339 151.27533811 -82.12191362 159.04092004 -86.2109375 166.796875 C-89.49086318 173.02246641 -92.74786086 179.25985485 -96 185.5 C-100.05219179 193.27527155 -104.1219133 201.04091943 -108.2109375 208.796875 C-111.49086358 215.02246719 -114.74770078 221.25993772 -118 227.5 C-131.22253334 252.85693844 -131.22253334 252.85693844 -137.32421875 264.17578125 C-145.65764498 279.64087067 -153.77397325 295.20455216 -161.78497314 310.83901978 C-162.15370544 311.55858856 -162.52243774 312.27815735 -162.90234375 313.01953125 C-163.26382507 313.72500092 -163.6253064 314.43047058 -163.9977417 315.15731812 C-167.4971976 321.98084266 -171.06172904 328.76888592 -174.6484375 335.546875 C-177.45567338 340.85238184 -180.22668737 346.17670536 -183 351.5 C-187.05206339 359.27533811 -191.12191362 367.04092004 -195.2109375 374.796875 C-198.49086322 381.02246649 -201.74784366 387.25986375 -205 393.5 C-208.27040266 399.7748091 -211.54397748 406.04779349 -214.8425293 412.30786133 C-215.6494445 413.84046732 -216.45432926 415.37414423 -217.25708008 416.90893555 C-219.49327635 421.1777077 -221.77405586 425.41694777 -224.1015625 429.63671875 C-224.61581787 430.58272949 -225.13007324 431.52874023 -225.65991211 432.50341797 C-226.65533525 434.33390202 -227.6633951 436.15758796 -228.68579102 437.97314453 C-229.13365967 438.80313965 -229.58152832 439.63313477 -230.04296875 440.48828125 C-230.44539795 441.21571533 -230.84782715 441.94314941 -231.26245117 442.69262695 C-232.88461917 447.76747295 -230.72687369 451.99405404 -228.39764404 456.53094482 C-228.04083557 457.20522522 -227.6840271 457.87950562 -227.31640625 458.57421875 C-226.94549866 459.29095764 -226.57459106 460.00769653 -226.19244385 460.74615479 C-224.99039201 463.06416056 -223.77669809 465.37583699 -222.5625 467.6875 C-221.7274359 469.29139792 -220.8930471 470.89564761 -220.05932617 472.50024414 C-218.05608642 476.35104288 -216.04368233 480.19694632 -214.02709961 484.04077148 C-212.71667293 486.54045631 -211.41282541 489.0435467 -210.109375 491.546875 C-206.68724593 498.10014297 -203.2069471 504.62108171 -199.69921875 511.12890625 C-191.36035238 526.61088549 -183.23399434 542.18900242 -175.21502686 557.83901978 C-174.84629456 558.55858856 -174.47756226 559.27815735 -174.09765625 560.01953125 C-173.73617493 560.72500092 -173.3746936 561.43047058 -173.0022583 562.15731812 C-169.5028024 568.98084266 -165.93827096 575.76888592 -162.3515625 582.546875 C-159.54432662 587.85238184 -156.77331263 593.17670536 -154 598.5 C-150.34795015 605.50776856 -146.68536573 612.5096934 -143 619.5 C-138.79694496 627.47224633 -134.62612488 635.46103957 -130.4609375 643.453125 C-126.91935812 650.24569264 -123.35933432 657.02826049 -119.78466797 663.8034668 C-117.55387809 668.03523711 -115.33580499 672.2732154 -113.1328125 676.51953125 C-108.09331355 686.22938338 -102.99995073 695.90201743 -97.75 705.5 C-97.255 706.40983643 -96.76 707.31967285 -96.25 708.25708008 C-94.01072861 712.36552938 -91.74893293 716.45403558 -89.3984375 720.5 C-89.01075195 721.18255859 -88.62306641 721.86511719 -88.22363281 722.56835938 C-87.20714639 724.35556839 -86.17082296 726.13145564 -85.1328125 727.90625 C-83.66525513 731.91419979 -84.42586619 733.06797066 -86 737 C-87.34727794 739.88397378 -88.79606587 742.7098126 -90.26171875 745.53515625 C-90.68417374 746.35777451 -91.10662872 747.18039276 -91.54188538 748.02793884 C-92.9196664 750.70825377 -94.30350525 753.38538906 -95.6875 756.0625 C-96.64846315 757.92885568 -97.60907225 759.79539371 -98.56933594 761.66210938 C-101.37397778 767.11096067 -104.18633344 772.55580494 -107 778 C-107.72809699 779.40995753 -108.4561303 780.81994794 -109.18408203 782.22998047 C-112.23030608 788.12955733 -115.28136622 794.02661472 -118.3359375 799.921875 C-122.36070003 807.69187233 -126.36887349 815.47038131 -130.375 823.25 C-130.72953247 823.93843994 -131.08406494 824.62687988 -131.44934082 825.33618164 C-133.2472942 828.82756335 -135.0450793 832.31903168 -136.84277344 835.81054688 C-140.7471783 843.39350016 -144.65375247 850.97533618 -148.55993652 858.55737305 C-149.62070052 860.61636665 -150.68144986 862.67536781 -151.7421875 864.734375 C-152.09240967 865.41419434 -152.44263184 866.09401367 -152.8034668 866.79443359 C-154.9490634 870.95944423 -157.09414535 875.1247195 -159.23884583 879.29019165 C-166.29322974 892.99127333 -173.35271868 906.68960822 -180.4375 920.375 C-185.93315827 930.99154603 -191.40939042 941.61795412 -196.875 952.25 C-197.6333808 953.72509836 -198.39176296 955.20019601 -199.15014648 956.67529297 C-200.67143801 959.63441374 -202.19267356 962.59356328 -203.71386719 965.55273438 C-204.09087769 966.28613037 -204.46788818 967.01952637 -204.85632324 967.77514648 C-205.62010543 969.26097146 -206.38385858 970.74681135 -207.14758301 972.23266602 C-224.33810726 1005.67648223 -224.33810726 1005.67648223 -233 1022 C-236.6428114 1020.78572953 -237.09303605 1019.41236963 -238.77790833 1016.11207581 C-239.28809761 1015.07626625 -239.28809761 1015.07626625 -239.80859375 1014.01953125 C-240.17115768 1013.30405624 -240.53372162 1012.58858124 -240.90727234 1011.85142517 C-241.68631029 1010.31196917 -242.46098191 1008.77029745 -243.23175049 1007.22668457 C-245.25596947 1003.1737381 -247.31157093 999.13673488 -249.36328125 995.09765625 C-249.9699765 993.90008194 -249.9699765 993.90008194 -250.58892822 992.67831421 C-253.65500271 986.63834325 -256.83651144 980.67205889 -260.125 974.75 C-264.92158517 966.08528214 -269.48112566 957.31145468 -274 948.5 C-278.54014986 939.64721943 -283.12337602 930.83309683 -287.9375 922.125 C-293.36937935 912.29659952 -298.49519106 902.32153886 -303.61248779 892.32727051 C-308.43385698 882.91618313 -313.35620245 873.57918921 -318.47265625 864.32421875 C-322.79905945 856.45909988 -326.90402614 848.48657922 -331 840.5 C-335.56144497 831.60597774 -340.16664548 822.75049623 -345 814 C-349.83335982 805.24949418 -354.43835529 796.39392775 -359 787.5 C-363.71046141 778.31709583 -368.47008732 769.17267196 -373.4375 760.125 C-373.91606445 759.25246582 -374.39462891 758.37993164 -374.88769531 757.48095703 C-376.71701142 754.14966942 -378.54881622 750.81975419 -380.38134766 747.49023438 C-381.67940381 745.12299846 -382.9661148 742.74994403 -384.25 740.375 C-384.63341553 739.68164551 -385.01683105 738.98829102 -385.41186523 738.27392578 C-387.26286987 734.82884377 -388 733.00315136 -388 729 C-386.92361776 726.61975837 -385.80205857 724.37339891 -384.5546875 722.0859375 C-384.01260902 721.0686557 -384.01260902 721.0686557 -383.45957947 720.03082275 C-382.27255635 717.80791788 -381.07390093 715.59151782 -379.875 713.375 C-379.0457544 711.82769348 -378.21722881 710.28000088 -377.3894043 708.73193359 C-375.31664695 704.86045497 -373.23448488 700.99413434 -371.14874268 697.12963867 C-369.49997683 694.07301374 -367.85751525 691.01302949 -366.21484375 687.953125 C-363.9550842 683.74752356 -361.69043197 679.54461215 -359.421875 675.34375 C-355.78767096 668.61187954 -352.17340821 661.86938719 -348.5625 655.125 C-347.93964111 653.96178223 -347.31678223 652.79856445 -346.67504883 651.60009766 C-345.41363053 649.2441976 -344.15234358 646.88822727 -342.89111328 644.53222656 C-339.76209039 638.68742893 -336.63087309 632.84380667 -333.5 627 C-332.24999097 624.66667151 -330.99999097 622.33333817 -329.75 620 C-312.25 587.33333333 -294.75 554.66666667 -277.25 522 C-276.63116943 520.84483887 -276.01233887 519.68967773 -275.37475586 518.49951172 C-274.1256058 516.16778663 -272.87641964 513.83608088 -271.62719727 511.50439453 C-267.39353768 503.6022414 -267.39353768 503.6022414 -263.16218567 495.69885254 C-262.53064191 494.5194419 -261.89855156 493.3403238 -261.26591492 492.16149902 C-259.70010036 489.24248555 -258.14525173 486.31846272 -256.60522461 483.38574219 C-253.47886594 477.46053623 -250.22992917 471.69013606 -246.6640625 466.0234375 C-239.90587065 456.05653286 -239.90587065 456.05653286 -236.97851562 444.72412109 C-238.03182918 440.2302 -240.66478319 436.85227001 -243.42626953 433.23876953 C-246.57058905 428.76569941 -248.80967414 423.75491502 -251.25 418.875 C-255.78245653 410.12501329 -260.44752468 401.45320301 -265.18945312 392.81542969 C-269.39319417 385.14510949 -273.52772559 377.43913218 -277.63635254 369.71755981 C-278.36275089 368.35264673 -279.08985015 366.98810637 -279.81774902 365.62399292 C-284.0196815 357.74665853 -288.10863449 349.82507912 -292.07865906 341.82833862 C-295.27908853 335.39971877 -298.64992645 329.06840765 -302.0625 322.75 C-302.70914822 321.54847179 -303.35554452 320.34680797 -304.00170898 319.14501953 C-305.33613874 316.66355613 -306.67161833 314.18266216 -308.0078125 311.70214844 C-311.20406893 305.76585403 -314.38151164 299.81948497 -317.5625 293.875 C-322.36323377 284.91030726 -327.17594487 275.95216317 -332 267 C-338.72402122 254.52200514 -345.41919402 242.02864926 -352.10888672 229.53222656 C-355.23790961 223.68742893 -358.36912691 217.84380667 -361.5 212 C-362.75000903 209.66667151 -364.00000903 207.33333817 -365.25 205 C-365.86875 203.845 -366.4875 202.69 -367.125 201.5 C-432.75 79 -432.75 79 -434.62524414 75.49951172 C-435.8743942 73.16778663 -437.12358036 70.83608088 -438.37280273 68.50439453 C-441.19517673 63.23630638 -444.01732259 57.96809695 -446.8379364 52.69906616 C-447.78498409 50.93000908 -448.73220122 49.16104281 -449.67944336 47.39208984 C-450.92422137 45.06714858 -452.16853295 42.74195753 -453.41235352 40.41650391 C-456.60870159 34.44496965 -459.82005926 28.48210261 -463.0546875 22.53125 C-464.03372536 20.7265322 -465.01248654 18.92166461 -465.99118042 17.11676025 C-466.91954288 15.4080512 -467.8524282 13.70180194 -468.78540039 11.99560547 C-469.3396167 10.97354004 -469.89383301 9.95147461 -470.46484375 8.8984375 C-471.20142212 7.54758057 -471.20142212 7.54758057 -471.95288086 6.16943359 C-473 4 -473 4 -473 2 C-429.35044287 1.74123071 -385.70086536 1.48616504 -342.05126012 1.23563546 C-336.82185231 1.20561798 -331.59244466 1.17557181 -326.36303711 1.14550781 C-325.32256272 1.13952658 -324.28208833 1.13354535 -323.21008442 1.12738287 C-308.69928795 1.04390756 -294.1885012 0.95889798 -279.67772116 0.87261605 C-254.63282552 0.72369938 -229.58791382 0.57787516 -204.54296875 0.4375 C-203.56590522 0.43201676 -202.5888417 0.42653353 -201.58217019 0.42088413 C-134.38741865 0.04435433 -67.19584461 -0.14525355 0 0 Z " fill="#52B047" transform="translate(1539,529)"/>
<path d="M0 0 C0.99 0 1.98 0 3 0 C3.53367187 1.15113281 4.06734375 2.30226563 4.6171875 3.48828125 C9.6681471 14.30930455 15.02896028 24.91338838 20.64794922 35.44873047 C22.57614144 39.08715746 24.46860675 42.74383063 26.36401367 46.39941406 C30.64638288 54.65555066 35.00121062 62.85985601 39.5 71 C46.14539495 83.05185634 52.37076428 95.31922975 58.61914062 107.58007812 C63.97259244 118.08073197 69.4138626 128.53085642 74.91986084 138.95230103 C77.29718501 143.45916871 79.64740763 147.98019145 82 152.5 C85.65180392 159.50789622 89.31463486 166.50969451 93 173.5 C97.20305504 181.47224633 101.37387512 189.46103957 105.5390625 197.453125 C109.08064188 204.24569264 112.64066568 211.02826049 116.21533203 217.8034668 C118.44612191 222.03523711 120.66419501 226.2732154 122.8671875 230.51953125 C127.90668645 240.22938338 133.00004927 249.90201743 138.25 259.5 C138.745 260.40983643 139.24 261.31967285 139.75 262.25708008 C141.98927139 266.36552938 144.25106707 270.45403558 146.6015625 274.5 C147.18309082 275.52383789 147.18309082 275.52383789 147.77636719 276.56835938 C148.79285361 278.35556839 149.82917704 280.13145564 150.8671875 281.90625 C152.33474487 285.91419979 151.57413381 287.06797066 150 291 C148.65272206 293.88397378 147.20393413 296.7098126 145.73828125 299.53515625 C145.31582626 300.35777451 144.89337128 301.18039276 144.45811462 302.02793884 C143.0803336 304.70825377 141.69649475 307.38538906 140.3125 310.0625 C139.35153685 311.92885568 138.39092775 313.79539371 137.43066406 315.66210938 C134.62602222 321.11096067 131.81366656 326.55580494 129 332 C128.27190301 333.40995753 127.5438697 334.81994794 126.81591797 336.22998047 C123.76969392 342.12955733 120.71863378 348.02661472 117.6640625 353.921875 C113.63929997 361.69187233 109.63112651 369.47038131 105.625 377.25 C105.27046753 377.93843994 104.91593506 378.62687988 104.55065918 379.33618164 C102.7527058 382.82756335 100.9549207 386.31903168 99.15722656 389.81054688 C95.2528217 397.39350016 91.34624753 404.97533618 87.44006348 412.55737305 C86.37929948 414.61636665 85.31855014 416.67536781 84.2578125 418.734375 C83.90759033 419.41419434 83.55736816 420.09401367 83.1965332 420.79443359 C81.0509366 424.95944423 78.90585465 429.1247195 76.76115417 433.29019165 C69.70677026 446.99127333 62.64728132 460.68960822 55.5625 474.375 C50.06684173 484.99154603 44.59060958 495.61795412 39.125 506.25 C38.3666192 507.72509836 37.60823704 509.20019601 36.84985352 510.67529297 C35.32856199 513.63441374 33.80732644 516.59356328 32.28613281 519.55273438 C31.90912231 520.28613037 31.53211182 521.01952637 31.14367676 521.77514648 C30.37989457 523.26097146 29.61614142 524.74681135 28.85241699 526.23266602 C11.66189274 559.67648223 11.66189274 559.67648223 3 576 C-0.6428114 574.78572953 -1.09303605 573.41236963 -2.77790833 570.11207581 C-3.28809761 569.07626625 -3.28809761 569.07626625 -3.80859375 568.01953125 C-4.17115768 567.30405624 -4.53372162 566.58858124 -4.90727234 565.85142517 C-5.68631029 564.31196917 -6.46098191 562.77029745 -7.23175049 561.22668457 C-9.25596947 557.1737381 -11.31157093 553.13673488 -13.36328125 549.09765625 C-13.9699765 547.90008194 -13.9699765 547.90008194 -14.58892822 546.67831421 C-17.65500271 540.63834325 -20.83651144 534.67205889 -24.125 528.75 C-28.92158517 520.08528214 -33.48112566 511.31145468 -38 502.5 C-42.54014986 493.64721943 -47.12337602 484.83309683 -51.9375 476.125 C-57.36937935 466.29659952 -62.49519106 456.32153886 -67.61248779 446.32727051 C-72.43385698 436.91618313 -77.35620245 427.57918921 -82.47265625 418.32421875 C-86.79905945 410.45909988 -90.90402614 402.48657922 -95 394.5 C-99.56144497 385.60597774 -104.16664548 376.75049623 -109 368 C-113.83335982 359.24949418 -118.43835529 350.39392775 -123 341.5 C-127.71046141 332.31709583 -132.47008732 323.17267196 -137.4375 314.125 C-137.91606445 313.25246582 -138.39462891 312.37993164 -138.88769531 311.48095703 C-140.71701142 308.14966942 -142.54881622 304.81975419 -144.38134766 301.49023438 C-145.67940381 299.12299846 -146.9661148 296.74994403 -148.25 294.375 C-148.63341553 293.68164551 -149.01683105 292.98829102 -149.41186523 292.27392578 C-151.26286987 288.82884377 -152 287.00315136 -152 283 C-150.92361776 280.61975837 -149.80205857 278.37339891 -148.5546875 276.0859375 C-148.19330185 275.40774963 -147.8319162 274.72956177 -147.45957947 274.03082275 C-146.27255635 271.80791788 -145.07390093 269.59151782 -143.875 267.375 C-143.0457544 265.82769348 -142.21722881 264.28000088 -141.3894043 262.73193359 C-139.31664695 258.86045497 -137.23448488 254.99413434 -135.14874268 251.12963867 C-133.49997683 248.07301374 -131.85751525 245.01302949 -130.21484375 241.953125 C-127.9550842 237.74752356 -125.69043197 233.54461215 -123.421875 229.34375 C-119.78767096 222.61187954 -116.17340821 215.86938719 -112.5625 209.125 C-111.93964111 207.96178223 -111.31678223 206.79856445 -110.67504883 205.60009766 C-109.41363053 203.2441976 -108.15234358 200.88822727 -106.89111328 198.53222656 C-103.76209039 192.68742893 -100.63087309 186.84380667 -97.5 181 C-96.24999097 178.66667151 -94.99999097 176.33333817 -93.75 174 C-67.5 125 -67.5 125 -41.25 76 C-40.63116943 74.84483887 -40.01233887 73.68967773 -39.37475586 72.49951172 C-38.1256058 70.16778663 -36.87641964 67.83608088 -35.62719727 65.50439453 C-32.48889586 59.64661365 -29.35122366 53.78849732 -26.21484375 47.9296875 C-23.10825173 42.12671087 -19.99949321 36.32489815 -16.88916016 30.52392578 C-15.59146808 28.103289 -14.29421829 25.68241996 -12.99755859 23.26123047 C-11.35465809 20.19384817 -9.70986939 17.12748527 -8.06375122 14.06182861 C-7.14213561 12.34443158 -6.22229592 10.62608191 -5.30249023 8.90771484 C-4.75149658 7.88242676 -4.20050293 6.85713867 -3.6328125 5.80078125 C-3.14699707 4.89497314 -2.66118164 3.98916504 -2.16064453 3.0559082 C-1 1 -1 1 0 0 Z " fill="#0B7F3B" transform="translate(1303,975)"/>
</svg>
